<?xml version="1.0" encoding="UTF-8"?>
<svg id="Camada_2" data-name="Camada 2" xmlns="http://www.w3.org/2000/svg" viewBox="0 0 331.34 107.13">
  <defs>
    <style>
      .cls-1 {
        fill: #262626;
      }

      .cls-2 {
        fill: #f2ae30;
      }

      .cls-3 {
        fill: #629d97;
      }
    </style>
  </defs>
  <g id="asa1">
    <path class="cls-1" d="M319.34,80c-16.11-16.95-39.15-15.68-58.69-29.65-13.7-9.79-13.61-15.93-19.95-23.98,0,0-3.01-3.69-7.75-7.7-10.7-9.06-68.17-32.61-94.77-7.32-9,8.55-27.11,39.48-2.5,61.23,18.76,16.58,71.09,19.01,99.85,12.44,9.32-2.13,16.89-4.6,30.61-5.24,10.16-.47,18.54.39,24.04,1.19,9.96,1.45,16.71,2.69,23.98,7.02,11.41,6.79,15.96,16.72,16.97,16.09,1.08-.68-1.84-13.61-11.79-24.08Z"/>
    <g>
      <path class="cls-1" d="M127.32,53.6s8.6-23.86,14.37-40.27c-24.98,2.76-40.7,1.39-44.76,1.55C-40.82,20.17-.51,95.11,30.26,106.96c8.9,3.43,72.34-45.91,97.06-53.36Z"/>
      <path class="cls-1" d="M318.03,90.1c-.28-.04-.57-.08-.86-.12,9.2,6.58,13.05,14.68,13.96,14.11.69-.43-.25-5.86-3.61-12.44-2.92-.55-6.04-1.04-9.49-1.54Z"/>
    </g>
    <ellipse class="cls-3" cx="215.56" cy="42.9" rx="13.01" ry="13.82" transform="translate(71.64 209.02) rotate(-60.35)"/>
    <ellipse cx="221.64" cy="40.64" rx="6.44" ry="6.74" transform="translate(28.52 156.74) rotate(-41.4)"/>
    <path class="cls-2" d="M330.63,104.65c1.21-1.5-8.56-14.23-24.09-21.85-1.56-.76-5.13-2.44-19.09-5.94-24.83-6.22-32.23-5.61-40.83-8.35-3.25-1.04-6.16-2.48-7.06-2.89-10.04-4.58-11.47-7.26-16.03-7.24-3.84,0-8.41,1.93-10.47,5.59-2.21,3.92-1.4,9.56,1.07,13.07,6.39,9.11,22.37,1.79,55.52,5.48,7.45.83,14.45,1.68,23.52,4.32,23.88,6.97,36.19,19.39,37.47,17.81Z"/>
  </g>
</svg>