<?xml version="1.0" encoding="UTF-8"?>
<svg id="Camada_2" data-name="Camada 2" xmlns="http://www.w3.org/2000/svg" viewBox="0 0 335.34 265.63">
  <defs>
    <style>
      .cls-1 {
        fill: #262626;
      }

      .cls-2 {
        fill: #f2ae30;
      }

      .cls-3 {
        fill: #629d97;
      }
    </style>
  </defs>
  <g id="bico_amarelo" data-name="bico amarelo">
    <g>
      <path class="cls-1" d="M56.11,75.85c4.35-10.52,19.69-44.05,55.17-63.02,43.86-23.45,95.41-12.31,121.14,13.61,16.14,16.26,8.82,23.9,27.73,40.58,20.87,18.4,48.24,18.48,64.59,40.29,10.1,13.47,11.53,29.45,10.15,30.2-1.28.7-5.11-11.74-17.5-20.82-7.9-5.79-15.66-7.77-27.18-10.25-6.36-1.37-16.11-3.01-28.16-3.14-16.27-.18-25.58,2.29-36.91,4.23-42.13,7.23-51.17-10.54-74.9,1.3-18.32,9.14-27.4,26.93-29.75,31.98-6.19,13.3-5.52,23.82-5.95,38.1-1.35,45.07-4.83,72.01-15.87,77.16C2.65,300.79-10.8,174.76,6.34,167.75c15.45-6.32,24.64-21.32,29.75-31.98"/>
      <ellipse class="cls-3" cx="208.16" cy="54.76" rx="16.28" ry="15.99" transform="translate(43.83 193.76) rotate(-54.97)"/>
      <path d="M212.63,61.24c-3.51,2.68-8.36,1.95-10.83-1.62s-1.62-8.65,1.89-11.34c3.51-2.68,8.36-1.95,10.83,1.62,2.47,3.58,1.62,8.65-1.89,11.34Z"/>
      <path class="cls-2" d="M334.22,138.16c1.67-1.74-7.88-17.95-25.01-28.34-1.72-1.04-5.67-3.34-21.58-8.58-28.31-9.34-37.13-9.11-46.84-13.05-3.67-1.49-6.87-3.46-7.88-4.03-11.13-6.29-12.4-9.66-17.77-9.96-4.53-.26-10.22,1.76-13.22,6.08-3.22,4.62-3.14,11.56-.77,16.01,6.12,11.55,26.1,3.76,64.61,10.59,8.66,1.54,16.77,3.06,27.05,6.93,27.07,10.18,39.65,26.2,41.41,24.36Z"/>
    </g>
  </g>
</svg>