<?xml version="1.0" encoding="UTF-8"?>
<svg id="Camada_2" data-name="Camada 2" xmlns="http://www.w3.org/2000/svg" viewBox="0 0 2316.45 706.06">
  <defs>
    <style>
      .cls-1 {
        fill: #55c0d0;
      }
    </style>
  </defs>
  <g id="agua1">
    <path class="cls-1" d="M94.61,116.01C107.49,101.95,202.49,1.29,333.61,5.01c100.11,2.83,108.45,63.32,215,73,119.44,10.85,142.55-62.1,262-60,135.89,2.39,145.2,97.49,273,105C1234.82,131.89,1262.88,1.17,1423.61,0c141.19-1.02,157.06,99.59,305,99,142.17-.57,168.88-93.64,306-92,122.57,1.47,268.77,77.84,281,164,24.68,173.89-498.75,376.6-554,398-651.49,252.3-1190.03,91.28-1405,27C151.33,534.63,32.11,475.48,5.61,373.01-26.01,250.8,86,125.4,94.61,116.01Z"/>
  </g>
</svg>