<?xml version="1.0" encoding="UTF-8"?>
<svg id="Camada_2" data-name="Camada 2" xmlns="http://www.w3.org/2000/svg" viewBox="0 0 2076.99 1530.58">
  <defs>
    <style>
      .cls-1 {
        fill: #77cdd9;
      }
    </style>
  </defs>
  <g id="agua1">
    <path class="cls-1" d="M92.79,48.58c39.57-20.79,92-34.05,92-34.05C235.85,1.62,276.48.7,287.79.58c106.01-1.05,128.3,44.47,245,47.5,20.26.53,48.86,1.77,85.77-5.61,72.96-14.57,101.63-49.69,222.23-39.13,112.1,9.81,112.84,42.39,218,44.74,133.36,2.97,147.66-49.08,277-44.74,116.83,3.92,115.66,46.74,228,44.74,92.81-1.66,172.23-35.21,238-44.74,7.46-1.08,156.08-20.94,229,50.23,103.97,101.48-34.66,301.42-7,653.15,7.74,98.45,20.63,214.2,20.63,214.2,20.3,108.63,45.05,144.58,25.37,216.33-136.33,496.86-1813.48,560.18-2023-25.59-8.64-24.14-18.5-134.35-34-356.48C-3.15,526.82-25.15,110.54,92.79,48.58Z"/>
  </g>
</svg>