<?xml version="1.0" encoding="UTF-8"?>
<svg id="Camada_2" data-name="Camada 2" xmlns="http://www.w3.org/2000/svg" viewBox="0 0 3151.99 1099.01">
  <defs>
    <style>
      .cls-1 {
        fill: #1ea2af;
      }

      .cls-2 {
        fill: #088a97;
      }

      .cls-3 {
        fill: #016f7e;
      }

      .cls-4 {
        fill: #1ea2af;
      }

      .cls-5 {
        fill: #01687e;
      }

      .cls-6 {
        fill: #08778a;
      }

      .cls-7 {
        fill: #46b3bd;
      }
    </style>
  </defs>
  <g id="agua1">
    <path class="cls-7" d="M336.33,125.03c108.39-52.1,230.47-70.75,243.99-72.73,189.65-27.82,344.09,10.01,414.53,27.97,303.22,77.33,293.55,202.12,493.23,218.2,7.82.63,34.83-.1,64.81-.7,87.23-1.73,160.02-6.41,216.27-10.9,190.34-15.18,170.91-26.5,249.92-26.89,190.76-.96,288.39,65.1,383.13,22.41,13.54-6.1,37.58-19.18,60.9-34.96,48.85-33.07,56.2-52.06,92.61-77.1,12-8.25,53.54-36.82,106.57-46.62,110.96-20.5,191.17,56.83,242.31,32.27,51.14-24.55,15.44-118.03,34.25-120.13,10.89-1.21,26.8,29.59,31.72,41.24,19.74,46.74,14.37,86.52,13.96,89.65-9.66,73.65,63.7,154.7,90.07,199.02,0,0,80.89,135.95-87.54,383.7C2701.47,1169.58,204.07,1129.8,13.62,650.96-46.86,498.88,99.98,238.64,336.33,125.03Z"/>
    <path class="cls-4" d="M393.95,502.03s182.36-18.3,290.52-23.31c213.86-9.91,224.59,28.14,405.97,25.1,81.71-1.37,335.31-1.95,535.37-103.99,40.82-20.82,75.68-43.92,144.63-63.65,64.66-18.5,121.57-23.23,159.85-25.1,102.91-5.03,232.37-5.1,558.21,52.89,78.56,13.98,199.12,37.91,261.34-3.59,25.66-17.12,46.18-48.55,79.92-47.51,23.7.73,40.51,17.06,46.94,23.31,47.99,46.64,111.01,310.92,10.15,463.48-311.86,471.72-2482.42,317.09-2574.09,8.07-26.07-87.9,81.21-305.7,81.19-305.7Z"/>
    <path class="cls-2" d="M2977.59,130.31c-26.92-76.43-20.15-113.07-68.58-125.95-81-21.55-255.25,39.6-308.6,121.51-43.74,67.15,23.27,102.96-36.93,168.93-46.05,50.46-89.42,34.07-142.43,90.39-49.85,52.96-15.02,78.71-84.4,157.07-22.39,25.29-42.4,42.11-31.65,48.9,19.25,12.15,110.09-24.96,303.33-75.57,100.03-26.2,150.04-39.3,211.01-48.9,190.22-29.96,258.21.49,313.88-28.15,73.46-37.8-87.6-115.08-155.62-308.21Z"/>
    <path class="cls-2" d="M353.11,92.47c48.94-3.32,72.75,54.99,162.29,56.13,60.73.77,73.57-25.75,123.65-17.54,69.77,11.44,112.67,74.05,135.25,107,41.2,60.13,28.11,80.84,59.89,147.34,61.54,128.73,158.34,150.93,142.97,196.45-18.24,54.05-169.24,65.29-249.24,71.92-128.37,10.63-130.93-10.93-214.46,5.26-99.32,19.25-137.88,71.3-210.6,52.62-35.28-9.06-57.4-29.22-67.62-38.59-142.93-131.01-13.52-571.68,117.86-580.59Z"/>
    <path class="cls-6" d="M399.02,588.1c89.81-59.89,228.89-55.87,300.67-53.79,145.03,4.2,152.64,38.2,290.52,49.31,197.8,15.93,217.93-51.16,428.8-44.82,186.14,5.59,294.36,61.6,351.42,19.72,38.01-27.9,2.02-61.59,45.67-98.61,42.37-35.94,115.9-37.81,249.92-41.24,60.44-1.54,117.77-3.01,195.37,5.38,189.52,20.48,204.61,89.6,313.36,78.89,29.99-2.95,99.49-28.27,238.51-78.89,62.51-22.77,74.33-28.38,90.07-25.1,84.71,17.62,109.27,256.19,35.52,378.32-273.42,452.81-2518.76,332.55-2624.84,12.55-15.56-46.95-.5-144.69,85-201.71Z"/>
    <path class="cls-3" d="M751.71,546.86c-19.02-41.77-11.94-69.26-1.27-86.96,12.79-21.22,39.11-29.42,44.4-56.48,1.03-5.26,3.98-21.88-7.61-38.55-12.69-18.24-34.72-24.93-32.98-26.89,2.24-2.54,43.08,3.87,62.16,26,14.22,16.49,11.07,35.59,7.61,56.48-3.66,22.14-10.18,23.19-10.15,40.34.01,7.21.04,26.49,15.22,45.72,15.4,19.5,33.69,22.76,39.33,42.13,1.84,6.32,4.14,14.21-1.27,18.83-4.8,4.1-23.11,11.97-115.45-20.62Z"/>
    <path class="cls-5" d="M989.09,381.97c-2.99-2.25-28.42,10.07-47.72,22.8-4.75,3.13-13.08,8.86-22.88,17.04-9.14,7.63-24.67,20.76-37.26,39.1-5.23,7.62-9.33,17.05-17.31,35.59-13.28,30.85-19.92,46.28-20.29,55.64-.17,4.31-.73,29.41,19.57,51.88,4.89,5.42,12.26,12.25,24.69,17.05,34.36,13.28,91.54,2.55,102.33-19.53,10.71-21.91-26.93-49.5-32.98-53.79-20.58-14.58-35.49-14.46-44.4-28.69-6.59-10.53-4.41-20.13-.43-37.6,5.93-26.03,21.04-43.63,24.54-47.57,3.08-3.47,1.99-1.84,22.84-21.52,29.24-27.6,30.23-29.73,29.32-30.41Z"/>
    <path class="cls-3" d="M739.02,537.89c24.4-16.36,4.39-64.85-32.98-93.23-26.25-19.94-62.34-30.91-64.7-28.69-1.23,1.16,6.81,5.88,17.76,15.24,14.52,12.41,28.16,27.87,34.25,39.45,17.71,33.62-15.38,58.79,2.54,69.93,10.29,6.39,31.98,4.79,43.13-2.69Z"/>
    <path class="cls-5" d="M2193.75,449.45c1.53-15.74,6.7-40.81,25.33-68.3,18.98-27.99,42.82-45.09,60.99-57.88,49.53-34.89,106.98-57.02,112.03-52.68,3.37,2.89-20.96,13.75-34.28,40.5-8.62,17.29-1.61,19.09-11.42,43.03-9.24,22.56-22.14,37.23-26.64,42.13-10.95,11.92-21.63,19.73-24.1,21.52-36.53,26.35-79.94,33.86-78.13,37.84.45.99,3.7,1.8,16.75.71"/>
    <path class="cls-3" d="M2149.76,251.91c8.99,9.22,21.85,23.53,34.25,42.13,16.52,24.79,34.47,51.48,31.72,84.27-1.72,20.45-12.23,56.77-34.25,59.17-24.11,2.63-63.93-35.07-62.16-71.72,1.4-29.09,28.04-37.41,32.98-64.55,3.71-20.37-5.13-49.61-59.63-88.75"/>
    <path class="cls-5" d="M2206.89,439.69c-29.52-36.15-69.85-37.75-107.43-73.48-18.3-17.4-22.56-27.54-24.37-33.24-9.87-31.19,13.46-56.85,11.08-57.74-3.85-1.44-73.6,62.1-47.62,115.48,10.59,21.76,33.81,35.08,42.09,39.37,23.18,12,26.69,6.06,100.78,25.37,14.35,3.74,28.94,7.83,33.23,3.5,1.17-1.19,3.73-5.19-7.75-19.25Z"/>
    <path class="cls-3" d="M1279.47,561.2c-45.18-26.9,58.1-112.77,7.61-189.16-28.46-43.05-90.78-60.43-87.54-63.65,3.46-3.44,75.56,15.18,123.06,59.17,70.23,65.04,71.93,171.9,15.22,194.54-15.92,6.36-42.56,8.51-58.36-.9Z"/>
    <path class="cls-5" d="M1459.62,379.21c-4.46-2.29-49.72,33.7-83.73,77.1-35.24,44.96-32.76,65.14-27.91,77.1,5.08,12.52,13.83,17.44,16.49,18.83,20.74,10.82,61,7.98,77.39-6.28,28.86-25.1-37.08-67.5-12.69-125.51,10.75-25.57,33.07-39.89,30.45-41.24Z"/>
    <path class="cls-3" d="M2578.56,507.06c17.09-23.97-76.03-65.08-81.19-146.77-1.88-29.77,9.05-47.01,12.69-52.27,23.64-34.2,69.88-46.11,69.78-46.24-.12-.16-66.79,15.32-109.1,66.35-8.92,10.76-24.77,32.76-30.45,63.33-3.59,19.34-14.67,81.69,36.79,111.58,33.98,19.74,89.9,20.28,101.49,4.02Z"/>
    <path class="cls-5" d="M548.72,564.79c11.12-26.55-36.14-40.12-36.79-78.89-.88-52.45,80.56-91.94,74.85-95.92-3.56-2.49-34.5,13.7-63.43,34.07-24.41,17.18-58.76,41.35-81.19,79.79-9.37,16.06-44.74,76.65-12.69,95.03,28.7,16.46,106.55-3.74,119.25-34.07Z"/>
    <path class="cls-1" d="M1828.9,338.62c-8.56,2.8-43.58-32.83-60.96-67.66-18.95-37.99-21.07-83.34-11.64-84.81,17.7-2.76,89.02,147.11,72.6,152.47Z"/>
    <path class="cls-1" d="M1939.74,195.15c-5.79-5.82-53.42,32.24-80.22,83.9-14.13,27.23-26.05,65.12-19.14,66.94,14.05,3.72,109.04-141.11,99.36-150.84Z"/>
    <path class="cls-1" d="M1827.21,161.04c-8.78-3.48-23.05,49.19-10.69,107.42,6.51,30.69,22.06,70.69,29.08,70,14.29-1.41-3.71-171.61-18.39-177.42Z"/>
    <path class="cls-1" d="M1171.63,527.13c15.17-13.72-11.87-60.2-62.16-85.17-13.69-6.79-16.07-5.52-26.64-10.76-65.69-32.56-50.44-120.14-50.75-120.13-.42,0-38.48,164.93,68.51,208.88,24.76,10.17,61.36,15.93,71.04,7.17Z"/>
    <path class="cls-1" d="M1264.24,494.86c25.31-36.23-.58-73.88-11.42-89.65-16.01-23.29-37.04-36.43-74.85-60.06-46.11-28.82-86.83-44.89-88.81-43.03-3.44,3.23,119.65,51.5,110.37,101.3-3.16,16.94-18.61,17.86-34.25,44.82-19.12,32.98-24.35,80.46,1.27,90.55,24.02,9.46,76.41-13.48,97.69-43.93Z"/>
    <path class="cls-7" d="M1477.65,335.31c-17.27-.72-29.45-9.27-36.8-14.94-19.37-14.96-42.59-46.55-26.69-71.93,20.04-31.99,87.25-30.22,88.18-49.29.85-17.46-54.93-30.91-51.15-36.97,2.21-3.54,22.45-.89,35.27,1.85,6.67,1.43,53.82,11.37,55.55,27.11,2.43,21.98-79.93,26.98-88.18,58.53-8.23,31.47,64.85,60.39,50.26,78.25-5.3,6.48-19.04,7.7-26.45,7.39Z"/>
    <path class="cls-7" d="M1394.83,289.82c-10.09-14.9,5.87-23.68,2.35-38.22-6.83-28.24-74.6-26.54-90.6-58.99-8.84-17.92,1.83-38.74,18.61-49.92,11.29-7.53,29.34-13.35,35.32-9.71,8.05,4.91-16.77,20.32-13.3,39.9,4.96,28.01,61.51,28.92,85.45,64.49,19.24,28.58,8.01,65.54-8.39,68.62-9.48,1.78-23.42-7.26-29.44-16.16Z"/>
    <path class="cls-7" d="M1404.08,236.05c-17.66-8.15-19.36-37.6-13.16-57.65,11.31-36.55,50.5-47.01,45.7-63.35-4.9-16.69-48.81-16-48.47-23.44.25-5.52,24.68-12.84,47.09-6.97,18.78,4.93,41.34,20.49,40.86,37.38-.73,25.64-53.94,32.41-54.71,58.91-.57,19.66,28.35,29.05,23.54,43.08-3.85,11.23-26.91,18.47-40.86,12.04Z"/>
  </g>
</svg>