<?xml version="1.0" encoding="UTF-8"?>
<svg id="Camada_2" data-name="Camada 2" xmlns="http://www.w3.org/2000/svg" viewBox="0 0 2484.53 1224.91">
  <defs>
    <style>
      .cls-1 {
        fill: #1ea2af;
      }

      .cls-2 {
        fill: #088a97;
      }

      .cls-3 {
        fill: #016f7e;
      }

      .cls-4 {
        fill: #1ea2af;
      }

      .cls-5 {
        fill: #01687e;
      }

      .cls-6 {
        fill: #08778a;
      }

      .cls-7 {
        fill: #46b3bd;
      }
    </style>
  </defs>
  <g id="agua1">
    <g>
      <path class="cls-7" d="M265.11,138.46c85.44-58.12,181.66-78.92,192.33-81.13,149.49-31.03,271.22,11.17,326.75,31.21,239.01,86.26,231.38,225.46,388.79,243.4,6.16.7,27.45-.11,51.09-.78,68.76-1.93,126.13-7.15,170.47-12.16,150.03-16.93,134.72-29.56,197-30,150.36-1.07,227.32,72.62,302,25,10.67-6.81,29.62-21.4,48-39,38.51-36.89,44.3-58.07,73-86,9.46-9.21,42.2-41.07,84-52,87.46-22.86,150.69,63.39,191,36,40.31-27.39,12.17-131.66,27-134,8.58-1.35,21.12,33.01,25,46,15.56,52.14,11.32,96.51,11,100-7.62,82.16,50.21,172.56,71,222,0,0,63.76,151.64-69,428C2129.4,1303.62,160.86,1259.26,10.74,725.12c-47.68-169.63,68.07-459.92,254.37-586.66Z"/>
      <path class="cls-7" d="M1164.74,374.02c-13.61-.8-23.22-10.34-29.01-16.67-15.27-16.69-33.57-51.92-21.04-80.23,15.8-35.68,68.78-33.71,69.51-54.98.67-19.48-43.3-34.48-40.31-41.24,1.74-3.95,17.7-1,27.8,2.06,5.26,1.59,42.42,12.68,43.79,30.24,1.91,24.52-63.01,30.1-69.51,65.29-6.49,35.1,51.12,67.36,39.62,87.28-4.18,7.23-15.01,8.59-20.85,8.25Z"/>
      <path class="cls-7" d="M1099.46,323.28c-7.95-16.63,4.63-26.41,1.86-42.64-5.38-31.51-58.8-29.6-71.41-65.8-6.97-19.99,1.44-43.21,14.67-55.69,8.9-8.4,23.13-14.9,27.84-10.83,6.34,5.48-13.22,22.67-10.48,44.51,3.91,31.24,48.48,32.26,67.36,71.93,15.17,31.88,6.31,73.11-6.61,76.54-7.47,1.99-18.46-8.1-23.21-18.03Z"/>
      <path class="cls-7" d="M1106.75,263.3c-13.92-9.09-15.26-41.94-10.37-64.3,8.91-40.77,39.81-52.44,36.03-70.66-3.86-18.62-38.47-17.85-38.21-26.15.19-6.15,19.45-14.33,37.12-7.77,14.81,5.49,32.58,22.85,32.2,41.69-.57,28.6-42.52,36.16-43.12,65.72-.45,21.93,22.35,32.4,18.56,48.05-3.03,12.52-21.21,20.61-32.2,13.43Z"/>
    </g>
    <g>
      <path class="cls-4" d="M310.53,559s143.74-20.41,229-26c168.58-11.05,177.03,31.39,320,28,64.41-1.53,264.3-2.17,422-116,32.18-23.22,59.65-49,114-71,50.97-20.64,95.83-25.91,126-28,81.12-5.61,183.16-5.69,440,59,61.93,15.6,156.95,42.29,206-4,20.23-19.09,36.4-54.15,63-53,18.68.81,31.93,19.03,37,26,37.83,52.02,87.5,346.82,8,517-245.82,526.19-1956.74,353.71-2029,9-20.55-98.05,64.01-341,64-341Z"/>
      <path class="cls-1" d="M1441.61,376.71c-6.75,3.12-34.35-36.62-48.05-75.47-14.94-42.37-16.61-92.96-9.18-94.6,13.95-3.08,70.17,164.09,57.23,170.08Z"/>
      <path class="cls-1" d="M1528.98,216.69c-4.56-6.5-42.11,35.96-63.23,93.59-11.14,30.37-20.53,72.64-15.09,74.67,11.08,4.14,85.95-157.4,78.32-168.26Z"/>
      <path class="cls-1" d="M1440.28,178.64c-6.92-3.88-18.17,54.87-8.43,119.83,5.13,34.24,17.39,78.85,22.92,78.08,11.26-1.57-2.92-191.42-14.49-197.91Z"/>
      <path class="cls-1" d="M923.53,588c11.96-15.31-9.36-67.15-49-95-10.79-7.58-12.67-6.16-21-12-51.78-36.32-39.76-134.01-40-134-.33.01-30.33,183.98,54,233,19.52,11.34,48.37,17.77,56,8Z"/>
      <path class="cls-1" d="M996.53,552c19.95-40.41-.45-82.41-9-100-12.62-25.98-29.2-40.64-59-67-36.34-32.15-68.44-50.07-70-48-2.71,3.6,94.31,57.45,87,113-2.49,18.9-14.67,19.92-27,50-15.07,36.78-19.19,89.75,1,101,18.94,10.55,60.23-15.03,77-49Z"/>
    </g>
    <path class="cls-2" d="M2347.05,145.36c-21.22-85.25-15.88-126.12-54.06-140.5-63.85-24.04-201.2,44.17-243.25,135.54-34.48,74.9,18.34,114.85-29.11,188.43-36.3,56.29-70.48,38-112.27,100.83-39.3,59.08-11.84,87.8-66.53,175.21-17.65,28.21-33.42,46.97-24.95,54.55,15.17,13.56,86.78-27.84,239.1-84.3,78.85-29.22,118.27-43.84,166.33-54.55,149.94-33.42,203.53.54,247.41-31.41,57.91-42.16-69.05-128.37-122.67-343.8Z"/>
    <path class="cls-2" d="M278.33,103.15c38.58-3.71,57.35,61.34,127.93,62.61,47.87.86,57.99-28.73,97.47-19.57,55,12.77,88.81,82.6,106.61,119.35,32.48,67.07,22.15,90.18,47.21,164.35,48.51,143.6,124.81,168.36,112.7,219.14-14.38,60.29-133.4,72.83-196.46,80.22-101.19,11.85-103.2-12.19-169.05,5.87-78.29,21.47-108.68,79.53-166,58.7-27.81-10.11-45.25-32.6-53.3-43.05-112.66-146.14-10.66-637.69,92.9-647.63Z"/>
    <g>
      <path class="cls-6" d="M314.53,655c70.79-66.81,180.42-62.32,237-60,114.32,4.68,120.32,42.61,229,55,155.92,17.77,171.78-57.07,338-50,146.72,6.24,232.02,68.71,277,22,29.96-31.12,1.59-68.7,36-110,33.4-40.09,91.35-42.18,197-46,47.64-1.72,92.83-3.36,154,6,149.39,22.85,161.28,99.95,247,88,23.64-3.29,78.43-31.53,188-88,49.27-25.39,58.59-31.65,71-28,66.77,19.65,86.13,285.77,28,422-215.52,505.1-1985.38,370.95-2069,14-12.27-52.37-.39-161.4,67-225Z"/>
      <path class="cls-3" d="M592.53,610c-14.99-46.59-9.41-77.26-1-97,10.08-23.67,30.83-32.82,35-63,.81-5.87,3.13-24.41-6-43-10-20.35-27.37-27.81-26-30,1.76-2.83,33.96,4.31,49,29,11.21,18.4,8.72,39.7,6,63-2.89,24.7-8.02,25.87-8,45,0,8.04.03,29.55,12,51,12.14,21.76,26.55,25.39,31,47,1.45,7.05,3.26,15.85-1,21-3.78,4.58-18.22,13.35-91-23Z"/>
      <path class="cls-5" d="M779.64,426.07c-2.36-2.51-22.4,11.23-37.62,25.44-3.74,3.5-10.31,9.88-18.04,19.01-7.2,8.51-19.44,23.15-29.37,43.61-4.13,8.5-7.36,19.02-13.65,39.7-10.47,34.42-15.71,51.62-16,62.07-.13,4.81-.58,32.8,15.43,57.87,3.86,6.04,9.67,13.66,19.46,19.01,27.08,14.81,72.15,2.84,80.66-21.79,8.44-24.44-21.23-55.21-26-60-16.22-16.26-27.98-16.13-35-32-5.2-11.74-3.47-22.46-.34-41.94,4.67-29.04,16.59-48.66,19.34-53.06,2.42-3.87,1.57-2.06,18-24,23.05-30.79,23.83-33.17,23.11-33.93Z"/>
      <path class="cls-3" d="M582.53,600c19.23-18.25,3.46-72.34-26-104-20.7-22.24-49.14-34.48-51-32-.97,1.3,5.37,6.55,14,17,11.44,13.85,22.19,31.09,27,44,13.96,37.5-12.12,65.58,2,78,8.11,7.13,25.21,5.35,34-3Z"/>
      <path class="cls-5" d="M1729.2,500.34c1.2-17.56,5.28-45.52,19.97-76.18,14.96-31.22,33.76-50.29,48.07-64.56,39.04-38.91,84.33-63.61,88.31-58.77,2.65,3.22-16.52,15.34-27.02,45.17-6.79,19.29-1.27,21.3-9,48-7.29,25.16-17.45,41.53-21,47-8.63,13.3-17.05,22.01-19,24-28.79,29.39-63.01,37.77-61.58,42.21.35,1.1,2.92,2.01,13.2.79"/>
      <path class="cls-3" d="M1694.53,280c7.08,10.28,17.22,26.24,27,47,13.02,27.65,27.17,57.42,25,94-1.35,22.81-9.64,63.32-27,66-19,2.93-50.39-39.12-49-80,1.11-32.45,22.1-41.73,26-72,2.93-22.73-4.04-55.34-47-99"/>
      <path class="cls-5" d="M1739.56,489.45c-23.27-40.32-55.06-42.1-84.68-81.97-14.42-19.41-17.78-30.72-19.21-37.08-7.78-34.79,10.61-63.41,8.73-64.4-3.03-1.6-58.01,69.28-37.54,128.81,8.35,24.27,26.65,39.13,33.17,43.91,18.27,13.39,21.04,6.76,79.44,28.3,11.31,4.17,22.82,8.74,26.19,3.9.92-1.32,2.94-5.79-6.11-21.47Z"/>
      <path class="cls-3" d="M1008.53,626c-35.61-30.01,45.8-125.79,6-211-22.43-48.02-71.55-67.4-69-71,2.73-3.84,59.56,16.94,97,66,55.36,72.55,56.7,191.75,12,217-12.55,7.09-33.55,9.49-46-1Z"/>
      <path class="cls-5" d="M1150.53,423c-3.51-2.56-39.19,37.59-66,86-27.78,50.15-25.82,72.66-22,86,4,13.97,10.9,19.45,13,21,16.35,12.07,48.08,8.9,61-7,22.75-28-29.23-75.29-10-140,8.48-28.52,26.06-44.5,24-46Z"/>
      <path class="cls-3" d="M2032.53,565.61c13.47-26.74-59.93-72.6-64-163.71-1.48-33.21,7.13-52.44,10-58.31,18.64-38.15,55.08-51.43,55-51.58-.09-.18-52.65,17.08-86,74.01-7.03,12-19.53,36.55-24,70.64-2.83,21.57-11.56,91.12,29,124.47,26.79,22.02,70.87,22.62,80,4.49Z"/>
      <path class="cls-5" d="M432.53,630c8.76-29.61-28.49-44.75-29-88-.69-58.51,63.5-102.56,59-107-2.81-2.77-27.19,15.29-50,38-19.24,19.16-46.32,46.12-64,89-7.39,17.92-35.26,85.5-10,106,22.62,18.36,83.99-4.17,94-38Z"/>
    </g>
  </g>
</svg>