<?xml version="1.0" encoding="UTF-8"?>
<svg id="Camada_2" data-name="Camada 2" xmlns="http://www.w3.org/2000/svg" viewBox="0 0 3472 807.52">
  <defs>
    <style>
      .cls-1 {
        fill: #7c8066;
      }

      .cls-2 {
        fill: #eab778;
      }

      .cls-3 {
        fill: #ffd196;
      }
    </style>
  </defs>
  <g id="terraagua">
    <path class="cls-2" d="M193.97,313.18c66.16-58.72,128-113.59,235.31-150,167.95-56.98,345.54-34.21,596.79-2,166.72,21.37,204.88,40.1,318.95,34,138.6-7.41,188.87-40.75,313.28-64,162.99-30.46,190.76,5.46,493.31,12,272.44,5.89,479.56,10.37,696.01-62C2988.25,34.16,3006.11-2.94,3085.75.18c204.38,8.02,442.81,266.3,374.23,434-100.32,245.33-854.28,283.5-1634.43,323-226.43,11.46-1732.31,87.71-1821.54-162-31.18-87.26,127.54-226.61,189.95-282Z"/>
    <path class="cls-3" d="M219.48,355.18c4.27-62.93,181.7-118.98,280.67-138,166.45-31.99,235.36,16.83,518.82,45,323.09,32.11,581.42,3.27,686.09-9,206.97-24.26,171.73-41.81,323.2-55,399.16-34.76,519.88,97.95,805.16,44,238.92-45.18,324.01-170.35,384.15-144,84.04,36.82,19.14,325.59-187.12,491-639.46,512.82-2826.26-8.85-2810.99-234Z"/>
    <path class="cls-1" d="M2265,237.18c10.35,27.96,101.1,30.73,111,7,7.53-18.04-24.75-68.03-66-61-29.34,5-51.35,36.84-45,54Z"/>
  </g>
</svg>