<?xml version="1.0" encoding="UTF-8"?>
<svg id="Camada_2" data-name="Camada 2" xmlns="http://www.w3.org/2000/svg" viewBox="0 0 2449.31 807.52">
  <defs>
    <style>
      .cls-1 {
        fill: #7c8066;
      }

      .cls-2 {
        fill: #eab778;
      }

      .cls-3 {
        fill: #ffd196;
      }
    </style>
  </defs>
  <g id="terraagua">
    <path class="cls-2" d="M136.83,313.18c46.68-58.72,90.29-113.59,166-150,118.48-56.98,243.76-34.21,421-2,117.61,21.37,144.53,40.1,225,34,97.78-7.41,133.24-40.75,221-64,114.98-30.46,134.57,5.46,348,12,192.19,5.89,338.3,10.37,491-62,99.22-47.03,111.81-84.13,168-81,144.18,8.02,312.38,266.3,264,434-70.77,245.33-602.65,283.5-1153,323-159.73,11.46-1222.05,87.71-1285-162-22-87.26,89.97-226.61,134-282Z"/>
    <path class="cls-3" d="M154.83,355.18c3.01-62.93,128.18-118.98,198-138,117.42-31.99,166.03,16.83,366,45,227.92,32.11,410.16,3.27,484-9,146.01-24.26,121.14-41.81,228-55,281.59-34.76,366.74,97.95,568,44,168.54-45.18,228.57-170.35,271-144,59.29,36.82,13.5,325.59-132,491-451.1,512.82-1993.77-8.85-1983-234Z"/>
    <path class="cls-1" d="M1462.83,237.18c10.35,27.96,101.1,30.73,111,7,7.53-18.04-24.75-68.03-66-61-29.34,5-51.35,36.84-45,54Z"/>
  </g>
</svg>