<?xml version="1.0" encoding="UTF-8"?>
<svg id="Camada_2" data-name="Camada 2" xmlns="http://www.w3.org/2000/svg" viewBox="0 0 164.49 271.7">
  <defs>
    <style>
      .cls-1 {
        fill: #25a101;
      }

      .cls-2 {
        fill: #c93f35;
      }
    </style>
  </defs>
  <g id="terraagua">
    <g>
      <path class="cls-2" d="M66.59,263.34c-5.98-9.69,21.31-29.42,14.11-43.56-7.55-14.83-39.32-2.83-51.13-18.42-15.06-19.87,26.4-53.83,14.94-93.11C35.04,75.84-3.02,65.42.19,59.64c3.49-6.27,51.9-.2,66.94,28.88,10.1,19.53-3.63,30.46,5.08,60.87,7.24,25.26,23.78,42.41,32.22,51.16,13.16,13.64,22.05,18.63,22.05,18.63,14.3,10.54,21.81,13.33,22.14,19.29.4,7.36-10.5,13.52-17.13,17.17-22.95,12.64-57.87,19.1-64.91,7.7Z"/>
      <path class="cls-1" d="M104.4,270.05c-6.51-6.64,24.14-28.87,23-66-1.06-34.73-28.69-41.75-27-73,1.66-30.68,28.96-36.2,29-63C129.47,28.29,69.46,1.37,70.4.05c1.03-1.43,72.94,28.27,77,77,2.01,24.09-14.64,27.9-16,57-2.2,47.23,40.35,64.83,32,97-7.7,29.65-52.01,46.13-59,39Z"/>
    </g>
  </g>
</svg>