<?xml version="1.0" encoding="UTF-8"?>
<svg id="Camada_2" data-name="Camada 2" xmlns="http://www.w3.org/2000/svg" viewBox="0 0 270.61 307.34">
  <defs>
    <style>
      .cls-1 {
        fill: #abd21f;
      }

      .cls-2 {
        fill: #25a101;
      }

      .cls-3 {
        fill: #7c8066;
      }
    </style>
  </defs>
  <g id="terraagua">
    <g>
      <path class="cls-1" d="M96.1,228.68c-10-14.37,17.25-32.02,14-63-3.18-30.31-31.15-34.71-33.6-65.68-2.04-25.83,15.56-46.05,19-50,35.7-41.01,103.59-26.62,104-23,.31,2.72-37.34.06-61,27-3.45,3.93-15.75,17.93-16,37-.35,26.29,22.61,31.59,32.6,62.68,9.06,28.23,4.78,68.82-18,80-13.33,6.54-33.65,5.57-41-5Z"/>
      <path class="cls-2" d="M52.64,283.68c-10.34-14.87,15.89-32.92,14-63C63.94,177.61,7.41,170.98.64,124.68-4.75,87.82,25.62,54.67,25.64,54.68c.02,0-17.5,20.83-14,45,2.25,15.56,12.61,23.26,50,57,43.35,39.12,47.09,44.73,50,52,10.84,27.13,6.27,68.09-18,80-13.33,6.54-33.65,5.57-41-5Z"/>
      <path class="cls-3" d="M138.5,289c-6.51,22.62-105.42,24.74-112,4-4.27-13.45,26.84-47.42,64-43,27.17,3.23,51.67,26.27,48,39Z"/>
      <g>
        <path class="cls-2" d="M213.5,229c10.34-14.87-15.89-32.92-14-63,2.7-43.07,59.23-49.71,66-96C270.89,33.14,240.52-.01,240.5,0c-.02,0,17.5,20.83,14,45-2.25,15.56-12.61,23.26-50,57-43.35,39.12-47.09,44.73-50,52-10.84,27.13-6.27,68.09,18,80,13.33,6.54,33.65,5.57,41-5Z"/>
        <path class="cls-3" d="M270.5,234c2.23-12.08-28.71-35.12-59-32-29.16,3-54.22,29.89-50,41,3.47,9.14,26.91,8.01,48,7,16.3-.78,58.57-2.81,61-16Z"/>
      </g>
    </g>
  </g>
</svg>