<?xml version="1.0" encoding="UTF-8"?>
<svg id="Camada_2" data-name="Camada 2" xmlns="http://www.w3.org/2000/svg" viewBox="0 0 649.52 226.86">
  <defs>
    <style>
      .cls-1 {
        fill: #fff;
      }

      .cls-2 {
        fill: #313130;
      }

      .cls-3 {
        fill: #666;
      }

      .cls-4 {
        fill: #424241;
      }

      .cls-5 {
        fill: #1d1d1b;
      }

      .cls-6 {
        fill: #7c7c7b;
      }
    </style>
  </defs>
  <g id="peixe">
    <path class="cls-3" d="M154.69,67.2c39.88-5.52,34.29-10.31,175.07-47.75C395.07,2.09,405.8.59,419.58.13c46.67-1.54,79.13,10.58,142.11,34.11,1.55.58,7.72,2.73,15.8,6.12,34.43,14.43,65.42,27.42,71.01,51.04,2.32,9.81-1,19.78-1,19.78s-1.67,6.07-5.1,11.73c-10.42,17.18-42.81,30.72-61.39,39.79-40.39,19.7-37.83,18.78-41.06,20.04-35.13,13.74-64.99,16.18-78.2,17.16-31.39,2.32-114.66,2.6-194.51-42.89-25.63-14.6-50.74-33.82-86.4-31.83-5.74.32-24.1,1.55-43.2,12.51-17.02,9.77-22.2,20.13-37.52,37.52-26.5,30.08-60.76,55.55-65.94,51.16-4.55-3.86,10.81-33.01,22.74-51.16,11.95-18.18,21.28-26.56,20.46-40.93-.09-1.6-.98-13.95-10.23-22.74-10.46-9.93-20.95-5.2-38.65-12.51C15.66,93.73-1.32,81.95.08,75.16c2.65-12.82,68.52,3.97,154.61-7.96Z"/>
  </g>
  <g id="Camada_5" data-name="Camada 5">
    <path class="cls-2" d="M495.02,10.76c-6.7,4.49-.85,14.63-10.27,27.65-6.31,8.72-10.88,6.86-14.63,14.19-5.36,10.48,2.77,16.72,1.49,34.32-1.3,18.01-10.44,20.18-7.55,30.86,3.37,12.47,16.36,11.47,21.2,26.24,3.52,10.74-1.8,15.97,3.2,21.76,5.91,6.83,14.72,1.15,24.08,8.56,7.99,6.32,5.72,13.73,12.63,16.17,7.23,2.55,15.53-3.52,19.71-6.57,3.38-2.47,8.86-6.47,8.25-10.66-.71-4.85-8.98-5.77-8.79-8.98.16-2.71,6.41-3.31,14.94-7.34,7.38-3.49,10.61-4.77,17-8.14,18.81-9.92,28.22-14.89,35.24-24.77,2.88-4.06,11.82-16.64,9.18-32.09-1.85-10.88-8.59-18.16-12.24-22.11-4.48-4.84-9.28-8.3-20.58-14.3-11.1-5.89-14.28-6.17-23.71-11.01-11.83-6.08-13.02-9.14-25.28-17.15-15.12-9.88-34.75-22.7-43.86-16.61Z"/>
    <path class="cls-4" d="M520.66,19.18c-6.31,3.13-2.05,13.9-10.65,23.26-8.57,9.33-18.76,5.11-22.74,12.63-4.7,8.9,8.62,16.61,7.58,32.84-1.08,16.7-15.97,20.8-13.64,32.34,2.23,11.06,16.31,9.26,24.76,24.76,7.09,13.01.57,21.36,8.08,27.28,5.78,4.56,9.12-.7,29.31,3.03,4.65.86,9.6,2.08,13.29-.7,2.79-2.1,2.11-4.43,4.84-7.87,3.42-4.32,8.08-4.1,14.94-7.34,7.38-3.49,10.61-4.77,17-8.14,18.81-9.92,28.22-14.89,35.24-24.77,2.88-4.06,11.82-16.64,9.18-32.09-1.85-10.88-8.59-18.16-12.24-22.11-4.48-4.84-9.28-8.3-20.58-14.3-32.25-17.11-37.64-13.13-56.18-24.15-15.72-9.35-22.23-17.63-28.19-14.67Z"/>
    <path class="cls-6" d="M541.87,26.86c-16.32,1.34-26.5,24.53-30.34,33.27-4.36,9.92-14.91,33.95-6.06,62.15,8.91,28.41,35.44,54.44,54.23,50.86,1.61-.31,1.38-.49,12.99-6.37,19.87-10.06,22.38-10.44,31.93-15.48,18.81-9.92,28.22-14.89,35.24-24.77,2.88-4.06,11.82-16.64,9.18-32.09-1.85-10.88-8.59-18.16-12.24-22.11-4.48-4.84-9.28-8.3-20.58-14.3-25.43-13.49-30.91-11.77-56.18-24.15-11.34-5.55-13.28-7.39-18.16-6.99Z"/>
  </g>
  <g id="Camada_6" data-name="Camada 6">
    <path class="cls-4" d="M.08,75.16c-.12.53,18.74,7.36,43.07,10.23,34.39,4.06,61.69-1.93,61.64-2.53-.04-.55-23.36,3.62-57.09.51C19.71,80.79.21,74.63.08,75.16Z"/>
    <path class="cls-4" d="M12.58,90.32c-.16.55,27.09,14.72,61.9,12.26,23.78-1.69,41.61-10.46,41.43-11.12-.2-.71-21.8,8.67-51.54,8.59-30.73-.08-51.65-10.21-51.79-9.73Z"/>
    <path class="cls-4" d="M39.28,226.1c-.6-.32,7.53-22.51,25.6-44.7,17.43-21.41,36.42-33.38,36.88-32.84.47.54-17.97,13.59-37.39,38.4-17.01,21.74-24.56,39.44-25.1,39.14Z"/>
    <path class="cls-4" d="M120.97,141.48c-.65-.76-25.74,15.63-49.52,43.45-16.37,19.16-27.15,37.94-26.48,38.42.62.45,10.95-14.94,29.01-35.39,26.74-30.27,47.6-45.77,46.99-46.48Z"/>
    <path class="cls-4" d="M71.01,116.01c2.59-4.56,8.49-4.32,23.48-6.2,23.19-2.91,34.65-6.7,35.06-5.22.49,1.74-16.36,3.53-34.03,17.27-9.67,7.52-13.28,13.71-18.14,12.41-5.66-1.52-9.75-12.33-6.38-18.27Z"/>
    <path class="cls-6" d="M367.63,48.51c-.8-.46-9.32,9.8-14.22,21.08-14.88,34.22,4.62,75.22,5.24,75.07.28-.07-2.98-8.73-4.32-25.29-.99-12.29-2.24-29.88,4.26-49.61,4.15-12.59,9.74-20.85,9.04-21.24Z"/>
    <path class="cls-6" d="M353.85,36.42c-.9-.51-10.44,10.98-15.94,23.62-16.68,38.36,5.18,84.31,5.87,84.15.32-.07-3.34-9.79-4.84-28.35-1.11-13.78-2.52-33.49,4.77-55.61,4.65-14.12,10.92-23.37,10.14-23.81Z"/>
    <path class="cls-6" d="M380.21,55.66c-.74-.42-8.62,9.06-13.16,19.5-13.77,31.66,4.27,69.6,4.85,69.46.26-.06-2.76-8.08-4-23.4-.92-11.37-2.08-27.65,3.94-45.9,3.84-11.65,9.01-19.29,8.37-19.66Z"/>
    <path class="cls-6" d="M388.38,60.8c-.61-.35-7.11,7.47-10.85,16.08-11.35,26.1,3.52,57.38,4,57.27.22-.05-2.28-6.66-3.29-19.29-.76-9.37-1.71-22.79,3.25-37.85,3.17-9.61,7.43-15.9,6.9-16.21Z"/>
  </g>
  <g id="olho_e_boca" data-name="olho e boca">
    <path class="cls-5" d="M641.1,123.88c.35.6-14.33,14.83-35.58,17.81-22.61,3.17-41.23-8-40.93-9.09.33-1.2,23.24,9.93,50.53,3.03,15.87-4.01,25.7-12.22,25.98-11.75Z"/>
    <circle class="cls-1" cx="600.82" cy="94.98" r="30.05"/>
    <circle class="cls-5" cx="600.82" cy="94.98" r="21.28"/>
  </g>
</svg>