<?xml version="1.0" encoding="utf-8"?>
<!-- Generator: Adobe Illustrator 27.2.0, SVG Export Plug-In . SVG Version: 6.00 Build 0)  -->
<svg version="1.1" xmlns="http://www.w3.org/2000/svg" xmlns:xlink="http://www.w3.org/1999/xlink" x="0px" y="0px"
	 viewBox="0 0 1280 1024" style="enable-background:new 0 0 1280 1024;" xml:space="preserve">
<style type="text/css">
	.st0{display:none;}
	.st1{fill:#3F3F3E;}
	.st2{fill:#373736;}
	.st3{fill:#444443;}
	.st4{fill:#313130;}
	.st5{fill:#424241;}
	.st6{fill:#2D269C;}
	.st7{fill:#F4C217;}
	.st8{fill:#FFFFFF;}
</style>
<g id="referencia" class="st0">
	
		<image style="display:inline;overflow:visible;" width="686" height="438" xlink:href="../../Referencias/firefox_BioRJ1Ewrz.png"  transform="matrix(1.2177 0 0 1.2177 222.3351 199.4526)">
	</image>
</g>
<g id="peixe">
	<path class="st1" d="M882.6,451.2c12.5-0.7,22.5,0.7,28.7,1.6c16.9,2.4,22.2,6.3,41,10.7c26.2,6.1,29.3,4.6,48.9,9.8
		c3.9,1,21.7,5.8,44,15.6c26.9,11.9,43.7,23.9,56.7,33.2c24.4,17.6,27.1,24.2,27.9,29.4c2.4,15.7-11.5,29.4-14.3,32.2
		c-11,10.8-21.6,12.3-65.5,20.5c-52.1,9.8-55,11.1-65.8,9.8c-27.4-3.3-27.2-14.1-53.4-17.6c-31.1-4.1-35.4,10.5-74.3,11.2
		c-31.3,0.5-33.1-8.9-67.7-8.6c-22,0.2-28.6,4.1-61.2,9.8c0,0-44.8,7.8-90.9,9.1c-41.3,1.1-65.5-3.4-101.6-9.8
		c-14.5-2.5-85.9-4.9-228.7-9.8c-16-0.5-62.4-2.1-120.2-16.6c-39.9-10-55.2-18.7-54.7-20.5c1-3.6,63.9,23.9,107.5-3.9
		c14.9-9.5,28-25.8,24.4-32.2c-8.1-14.6-99.8,22.9-100.6,20.5c-0.5-1.3,26.7-18.2,67.4-27.4c78.9-17.8,176.4,0.4,215.9,7.8
		c4.7,0.9,30.6,6.5,33.3,0.3c1.2-2.8-2.6-7.9-4.6-10.1c-5-5.5-10.5-5.7-10.4-7.1c0.2-2.3,17-5.1,36.5-1.7c18,3.1,30.5,10,34.5,12.1
		c30.3,15.5,69.2,6.6,137.5-9.1c34.9-8,63.1-17.1,78.8-22.1c30.5-9.9,61.7-17.7,91.9-28.7C849.7,457.4,863.7,452.2,882.6,451.2z"/>
</g>
<g id="Camada_5">
	<path class="st2" d="M913.2,449.2c-4.4,6.4,14.3,21.1,8.3,33.8c-5.8,12.3-28,8.1-32.4,20.3c-3.6,10,9.3,18.2,5.2,27.4
		c-4.8,10.7-26,7-28,15c-2.1,8,18.3,14.5,18.2,27.4c-0.1,11.9-17.5,18.3-15.6,22.8c2.1,5,23.2-4.6,49.4-1.6
		c25.6,2.9,26.4,14.2,51.5,18.9c9.2,1.7,28.2-2.1,65.8-9.8c43.1-8.8,51.3-11.6,58.6-20.2c0.8-1,14.3-17.3,11.1-36.5
		c-3.2-19.3-21.4-29.2-89.9-61.2C951.5,455.5,918.5,441.4,913.2,449.2z"/>
	<path class="st3" d="M938,459c-3.3,5.5,8,14.4,4.6,28.7c-2.4,10.2-10.6,15.9-15,19.5c-27.5,22.6-41.8,71.8-29.7,85.1
		c6.7,7.2,16.2-1.8,42.7,2.2c26.3,4,28.3,14.5,51.5,18.9c9.2,1.7,28.2-2.1,65.8-9.8c43.1-8.8,51.3-11.6,58.6-20.2
		c0.8-1,14.3-17.3,11.1-36.5c-1.9-11.2-9.9-26.6-89.9-61.2C1017.8,477.1,945.6,446.2,938,459z"/>
</g>
<g id="Camada_4">
	<path class="st4" d="M867.6,457c9.5-45.3-53.9-94.1-81.4-115.3c-75.1-57.9-166.4-65.8-169.4-58c-1.4,3.7,17,9.9,16.3,20.8
		c-1.1,17.3-48.7,22.7-48.9,40.4c0,4.3,2.7,4.1,5.2,11.1c6.2,17.3-2.9,41.4-18.9,54.1c-11.8,9.3-20.4,6.9-22.8,14.3
		c-2.8,8.8,8.7,14.3,15.6,35.2c3.1,9.2,6.5,19.5,3.3,30c-6,19.1-29.8,23.1-28.7,30.6c1.4,9.5,37.1,10.4,37.1,10.4
		C619.6,531.8,850.8,537.5,867.6,457z"/>
	<path class="st4" d="M834.4,608.8c0.5,3.6-10.1,8.3-31.3,17.6c-35.2,15.5-67.1,22.9-95.1,27.4c-36.7,5.8-69.1,6.8-69.7,3.3
		c-0.7-4.4,49.5-12.4,49.5-26.1c0-7.6-15.4-10.2-15-15C674,600.7,832.2,593.2,834.4,608.8z"/>
	<path class="st4" d="M855.2,608.2c0.2,2.9,8.2,2.4,11.1,8.5c4.3,9.2-8.1,23.5-9.8,25.4c-14.4,16.5-33.3,19.2-32.6,22.8
		c0.8,3.9,19.5,2.6,19.5,2.6c42.4-2.9,147.2-26.4,144.6-51.5c-1.6-15.7-44.2-24-69.1-24.8C885.8,590.3,854.8,602.3,855.2,608.2z"/>
	<path class="st1" d="M635.7,306.6c0.6-2,41.2,2.5,84,22.8c97.8,46.4,141.3,144.1,140.3,144.8c-0.7,0.5-28.5-62.2-100-111.6
		C698,319.7,634.9,309.1,635.7,306.6z"/>
	<path class="st1" d="M584.8,341.9c0.3-1.1,74.6,2,149.9,47.4c70.8,42.6,107.7,101.5,106.9,102.3c-0.8,0.8-37.6-54.6-109.5-97.8
		C655.6,347.9,584.5,343,584.8,341.9z"/>
	<path class="st1" d="M547.5,428.8c-0.1-1.5,76.6-30.1,153.4,2.8c61.8,26.5,93.4,79.9,92.7,80.7c-0.7,0.7-31-46.7-89.4-72.9
		C625.8,404.4,547.6,430.3,547.5,428.8z"/>
	<path class="st1" d="M538,520.2c-0.2-1.2,44.6-15.9,102.3-17.6c69.2-2,122.5,15.6,122.2,16.9c-0.2,1.3-50.6-12.9-123.5-11.1
		C579.5,510,538.2,521.4,538,520.2z"/>
	<path class="st1" d="M835.7,663.5c0.3,0.5,48.8-17.3,48.2-41c-0.2-8.9-7.2-17.6-9.8-16.9c-2.7,0.8,1.1,11.7-2,23.5
		C865.9,653.2,835.5,663.1,835.7,663.5z"/>
	<path class="st1" d="M895.6,597.7c2-1,17.5,14.7,15,30.6c-3.7,23.2-43.3,32-43.6,31.3c-0.3-0.6,27.6-7.5,33.9-28
		C905.9,614.9,893.7,598.7,895.6,597.7z"/>
	<path class="st1" d="M928.2,597.7c1.2-0.7,20,14.2,16.3,31.3c-4.4,20-35.1,23-35.8,21.5c-0.7-1.4,24.3-8,28-25.4
		C939.7,611.1,927.2,598.4,928.2,597.7z"/>
	<path class="st1" d="M958.2,603c1-1.2,20.3,5.2,20.2,16.9c-0.1,13-24,17.6-24.8,16.3c-0.6-1.1,14.5-6.9,15-16.9
		C969,610.3,957.4,604,958.2,603z"/>
	<path class="st1" d="M689.8,615.3c0.7-1.1,22,6.1,22.1,15c0.3,14.2-54.3,25.4-54.7,24.1c-0.4-1.2,44.3-12.6,43.6-26.7
		C700.5,620.8,689.2,616.2,689.8,615.3z"/>
	<path class="st1" d="M721,612.7c0.3-2.1,30-3.7,32.6,4.6c3.4,10.8-40.8,33.2-41.7,31.9c-0.7-1.1,28-17.6,24.8-28
		C734.6,614.6,720.8,614.2,721,612.7z"/>
	<path class="st1" d="M779,607.5c0.4-2.5,23.8-3.6,25.4,2c2.3,8.2-44,27.2-44.3,26.7c-0.2-0.4,30-13.7,28-22.1
		C787.2,609.8,778.8,609,779,607.5z"/>
	<path class="st4" d="M196.2,571.6c-0.1,1.4,51,10.6,114.7,9.8c69.3-0.9,123.8-13.4,123.6-14.9c-0.2-1.4-49,7.2-124.9,8.4
		C241,575.9,196.3,570.2,196.2,571.6z"/>
	<path class="st4" d="M478.7,511.1c0.1-0.9,25.3-3.2,44.9,11.7c8,6,13.6,13.8,13,14.3c-0.6,0.6-8.5-8-20.8-15
		C496,511,478.6,511.8,478.7,511.1z"/>
	<path class="st1" d="M311.3,247.3"/>
	<path class="st5" d="M896.3,258.3"/>
	<path class="st4" d="M263.4,525.1c0-1.4,63-11.6,131.3,11.4c21.8,7.3,39.5,16.5,39.1,17.6c-0.6,1.6-37.4-14.7-87.9-23.5
		C295.4,521.9,263.4,526.1,263.4,525.1z"/>
	<path class="st4" d="M249.6,549.2c-0.1,1.3,45.1,10.6,101.4,10.1c37.4-0.3,69.1-4.8,69.1-5.9c-0.1-1.1-31.7,1.6-80.8,0.7
		C282.7,553,249.8,548.1,249.6,549.2z"/>
</g>
<g id="olho_e_boca">
	<circle cx="1016.3" cy="534.4" r="27.8"/>
	<circle class="st6" cx="1016.3" cy="534.4" r="22.2"/>
	<circle class="st7" cx="1017.1" cy="533.6" r="16"/>
	<circle cx="1017.1" cy="533.6" r="10.8"/>
	<path d="M1124.5,572.7c0.2,0.5-27.3,12.7-63.7,17.9c-10.6,1.5-23.8,2.7-23.9,1.9c-0.1-0.9,15.2-4.1,23.9-5.8
		c14.3-2.7,18-2.7,28.4-4.5C1111.1,578.1,1124.4,572.3,1124.5,572.7z"/>
	<circle class="st8" cx="1027.1" cy="526.8" r="3.9"/>
</g>
</svg>
