<?xml version="1.0" encoding="utf-8"?>
<!-- Generator: Adobe Illustrator 27.2.0, SVG Export Plug-In . SVG Version: 6.00 Build 0)  -->
<svg version="1.1" xmlns="http://www.w3.org/2000/svg" xmlns:xlink="http://www.w3.org/1999/xlink" x="0px" y="0px"
	 viewBox="0 0 1280 1024" style="enable-background:new 0 0 1280 1024;" xml:space="preserve">
<style type="text/css">
	.st0{fill:none;stroke:#7C7C7B;stroke-width:10;stroke-miterlimit:10;}
	.st1{fill:#58FFE3;stroke:#7C7C7B;stroke-width:10;stroke-miterlimit:10;}
	.st2{fill:#85FFD8;stroke:#7C7C7B;stroke-width:10;stroke-miterlimit:10;}
	.st3{fill:#FFA21F;stroke:#7C7C7B;stroke-width:10;stroke-miterlimit:10;}
	.st4{fill:#76FFD3;stroke:#7C7C7B;stroke-width:10;stroke-miterlimit:10;}
	.st5{fill:#6AFFCF;stroke:#7C7C7B;stroke-width:10;stroke-miterlimit:10;}
</style>
<g id="Camada_3">
	<path class="st0" d="M610.5,266.5v49.3c2,0,4,0,6,0c21.7,0,43.5,0,65.2,0c0-16.4,0-32.8,0-49.3H610.5z"/>
	<path class="st1" d="M614.3,331.7"/>
	<path class="st1" d="M618.1,343.8"/>
	<path class="st1" d="M573.4,365.8"/>
</g>
<g id="Camada_4">
	<polygon class="st2" points="616.6,315.8 616.6,337.8 573.4,371.1 573.4,413.6 721.2,413.6 721.2,365.8 678.7,331.7 678.7,315.8 	
		"/>
</g>
<g id="Camada_5">
	<polyline class="st3" points="573.4,413.6 573.4,459.8 721.2,459.8 721.2,413.6 	"/>
</g>
<g id="Camada_6">
	<polyline class="st4" points="573.4,465.9 573.4,512 721.2,512 721.2,465.9 	"/>
</g>
<g id="Camada_7">
	<polyline class="st5" points="573.4,512 573.4,692.5 721.2,692.5 721.2,515.9 	"/>
</g>
</svg>
