<?xml version="1.0" encoding="utf-8"?>
<!-- Generator: Adobe Illustrator 27.2.0, SVG Export Plug-In . SVG Version: 6.00 Build 0)  -->
<svg version="1.1" id="Camada_2" xmlns="http://www.w3.org/2000/svg" xmlns:xlink="http://www.w3.org/1999/xlink" x="0px" y="0px"
	 viewBox="0 0 1280 1024" style="enable-background:new 0 0 1280 1024;" xml:space="preserve">
<style type="text/css">
	.st0{fill:#771714;}
	.st1{fill:#A1161B;}
	.st2{fill:#BF0010;}
	.st3{fill:#FFFFFF;}
</style>
<path class="st0" d="M837.9,514.4c-63.6,112.1-357.5,107.2-426-12.8c-16.3-28.7-24.6-72.2-6.7-104.6c26.3-47.6,97.9-50.3,240.2-53.8
	c142.9-3.5,167.2,17.3,177.3,28.2C855.8,407.1,862.1,471.7,837.9,514.4z"/>
<path class="st1" d="M836.4,402.9c0,49.8-96.7,90.2-216,90.2c-138.5,0-206.7-63.2-210.1-69c-3.6-6.2-5-12.8-5-12.8s-1.1-4.2-0.9-8.4
	c1.9-48.4,122.5-90.2,216-90.2C739.7,312.8,836.4,353.1,836.4,402.9z"/>
<path class="st2" d="M375.6,482.5"/>
<path class="st3" d="M445.3,396.9c-1.6,2.1,34.3,46.5,92.5,69.7c96.2,38.4,195.1-4.4,194.8-6.1c-0.3-1.5-78.5,31.2-169.8,3.8
	C490.9,442.7,447,394.7,445.3,396.9z"/>
<path class="st3" d="M530.2,410.5c24.4,5.5,35.6,11.7,36.4,9.9c1.6-3.7-46.2-20.8-44-35.6c1.7-11.3,31.2-14.6,31.1-15.2
	c-0.2-0.7-43.8,5.5-45.5,20.5c-0.7,5.9,5.3,12.1,6.1,12.9C519.3,408.2,525.5,409.5,530.2,410.5z"/>
<ellipse class="st3" cx="588.9" cy="390.1" rx="35.2" ry="14.8"/>
</svg>
