<svg xmlns="http://www.w3.org/2000/svg" xmlns:xlink="http://www.w3.org/1999/xlink" viewBox="0 0 225.73 59.26"><defs><style>.cls-1{isolation:isolate;opacity:0.5;}.cls-2{fill:#ff80ff;}.cls-3{fill:#208080;}.cls-4{fill:url(#Gradiente_sem_nome);}.cls-5{fill:url(#Gradiente_sem_nome_2);}.cls-6{fill:url(#Gradiente_sem_nome_3);}.cls-7{fill:url(#Gradiente_sem_nome_4);}.cls-8{fill:url(#Gradiente_sem_nome_5);}.cls-9{fill:url(#Gradiente_sem_nome_6);}.cls-10{fill:url(#Gradiente_sem_nome_7);}.cls-11{fill:url(#Gradiente_sem_nome_8);}.cls-12{fill:url(#Gradiente_sem_nome_9);}.cls-13{fill:url(#Gradiente_sem_nome_10);}.cls-14{fill:url(#Gradiente_sem_nome_11);}.cls-15{fill:url(#Gradiente_sem_nome_12);}.cls-16{fill:url(#Gradiente_sem_nome_13);}.cls-17{fill:url(#Gradiente_sem_nome_14);}.cls-18{fill:url(#Gradiente_sem_nome_15);}</style><linearGradient id="Gradiente_sem_nome" x1="-371.46" y1="614.98" x2="-370.46" y2="614.98" gradientTransform="matrix(20.43, 20.43, 20.43, -20.43, -4972.44, 20171.13)" gradientUnits="userSpaceOnUse"><stop offset="0" stop-color="#bdf255"/><stop offset="0.5" stop-color="#37d9a2"/><stop offset="1" stop-color="#55f2f2"/></linearGradient><linearGradient id="Gradiente_sem_nome_2" x1="-371.46" y1="614.98" x2="-370.46" y2="614.98" gradientTransform="matrix(23.17, 0, 0, -23.17, 8609.79, 14277.66)" gradientUnits="userSpaceOnUse"><stop offset="0" stop-color="#fff" stop-opacity="0.25"/><stop offset="1" stop-color="#fff" stop-opacity="0"/></linearGradient><linearGradient id="Gradiente_sem_nome_3" x1="-371.46" y1="614.98" x2="-370.46" y2="614.98" gradientTransform="matrix(20.33, 20.33, 20.33, -20.33, -4921.48, 20077.84)" xlink:href="#Gradiente_sem_nome"/><linearGradient id="Gradiente_sem_nome_4" x1="-371.46" y1="614.98" x2="-370.46" y2="614.98" gradientTransform="matrix(24.65, 0, 0, -24.65, 9184.27, 15190.19)" xlink:href="#Gradiente_sem_nome_2"/><linearGradient id="Gradiente_sem_nome_5" x1="-371.46" y1="614.98" x2="-370.46" y2="614.98" gradientTransform="matrix(16.49, 16.49, 16.49, -16.49, -3953.89, 16287.6)" xlink:href="#Gradiente_sem_nome"/><linearGradient id="Gradiente_sem_nome_6" x1="-371.46" y1="614.98" x2="-370.46" y2="614.98" gradientTransform="matrix(23.84, 0, 0, -23.84, 8913.41, 14693.59)" xlink:href="#Gradiente_sem_nome_2"/><linearGradient id="Gradiente_sem_nome_7" x1="-371.46" y1="614.98" x2="-370.46" y2="614.98" gradientTransform="matrix(14.53, 14.53, 14.53, -14.53, -3451.14, 14350.76)" xlink:href="#Gradiente_sem_nome"/><linearGradient id="Gradiente_sem_nome_8" x1="-371.46" y1="614.98" x2="-370.46" y2="614.98" gradientTransform="matrix(20.72, 0, 0, -20.72, 7779.74, 12770.55)" xlink:href="#Gradiente_sem_nome_2"/><linearGradient id="Gradiente_sem_nome_9" x1="-371.46" y1="614.98" x2="-370.46" y2="614.98" gradientTransform="matrix(20.03, 20.03, 20.03, -20.03, -4765.43, 19778.63)" xlink:href="#Gradiente_sem_nome"/><linearGradient id="Gradiente_sem_nome_10" x1="-371.46" y1="614.98" x2="-370.46" y2="614.98" gradientTransform="matrix(23.39, 0, 0, -23.39, 8799.25, 14422.97)" xlink:href="#Gradiente_sem_nome_2"/><linearGradient id="Gradiente_sem_nome_11" x1="-371.46" y1="614.98" x2="-370.46" y2="614.98" gradientTransform="matrix(6.03, 6.03, 6.03, -6.03, -1328.23, 5962.91)" xlink:href="#Gradiente_sem_nome"/><linearGradient id="Gradiente_sem_nome_12" x1="-371.46" y1="614.98" x2="-370.46" y2="614.98" gradientTransform="matrix(13.72, 13.72, 13.72, -13.72, -3206.31, 13559.8)" xlink:href="#Gradiente_sem_nome"/><linearGradient id="Gradiente_sem_nome_13" x1="-371.46" y1="614.98" x2="-370.46" y2="614.98" gradientTransform="matrix(12.93, 0, 0, -12.93, 4938.79, 7976.48)" xlink:href="#Gradiente_sem_nome_2"/><linearGradient id="Gradiente_sem_nome_14" x1="-371.46" y1="614.98" x2="-370.46" y2="614.98" gradientTransform="matrix(18.94, 18.94, 18.94, -18.94, -4456.22, 18704.5)" xlink:href="#Gradiente_sem_nome"/><linearGradient id="Gradiente_sem_nome_15" x1="-371.46" y1="614.98" x2="-370.46" y2="614.98" gradientTransform="matrix(23.5, 0, 0, -23.5, 8881.62, 14482.59)" xlink:href="#Gradiente_sem_nome_2"/></defs><g id="Camada_2" data-name="Camada 2"><g id="texto"><g class="cls-1"><path class="cls-2" d="M13,18.25c.23,1.33-.27,2.61-.2,3.22-.24.07-.48.16-.72.25C11,19.72,11.89,18.43,13,18.25Zm1.6,14.63a8.35,8.35,0,0,0,4.71.78c-1.38,1.24-2.95,1.75-4.58.83A3.24,3.24,0,0,1,14.59,32.88ZM.33,38.38a10.53,10.53,0,0,0,3.28,5.24,10.38,10.38,0,0,0,8,3.09,21.86,21.86,0,0,0,5.82-.87C24.2,44,27.71,39,27.27,31.8c-.05-.8-.41-1.15-1.12-1.85l-.68-.67a2.12,2.12,0,0,0-3.36.09,7.6,7.6,0,0,0-2.38-5.29c7-1.49,11-7.82,6.48-12.36A9.91,9.91,0,0,0,22.44,9a15.74,15.74,0,0,0-5.39-.89c-11.73,0-21,10-13.21,18.2a13,13,0,0,0-3.51,12Z"/></g><path class="cls-3" d="M1.32,37.5a9.56,9.56,0,0,0,3.12,4.76c3,3,7.91,2.71,12,1.57,6.12-1.7,9.14-6,8.75-12.45,0-.26-.09-.26-1.24-1.42l-.07-.06s-.29-.24-.3-.25a.51.51,0,0,0-.8.21C21,34.37,16.92,37.7,13,35.07a4.38,4.38,0,0,1,.32-4.74c2.6,1.28,6,2.47,6.61-.35a5.83,5.83,0,0,0-1.73-5.21c-1-1-1.15-1.16-1.36-1.34l0-.05A4.5,4.5,0,0,0,11,23.27c-3.68-4.78.23-7.95,2.62-6.89a6.39,6.39,0,0,1,.16,4.26.55.55,0,0,0,.1.43l0,0s0,0,0,.06c1.14,1.14,1.18,1.25,1.46,1.25,9.05,0,12.72-6.52,9.33-9.91A8.94,8.94,0,0,0,21.39,10c-6.45-2.39-17.46.74-19.19,7.88-.82,3.38.82,5.75,3.44,8.05A11.47,11.47,0,0,0,1.32,37.5Z"/><path class="cls-4" d="M15.19,42.2c5.91-1.64,8.74-5.82,8.37-11.92l-.28-.23C21.52,34.5,18.44,36.5,16,36.5c-2,0-4.71-1.19-5.07-3.77a4.63,4.63,0,0,1,1.17-4.17c2.23,1.13,5.73,2.62,6.23.18a5.37,5.37,0,0,0-1.83-5,4.09,4.09,0,0,0-5.55.25c-9.34-8.85,5.84-14.45,3.4-3.27,11.27,0,14.54-11,2.17-11-12.86,0-18.61,11.41-9.64,16C-1,29.88-1.54,46.85,15.19,42.2Z"/><path class="cls-5" d="M11.61,26c.39.18,1.49-.32,6.13-.32a.2.2,0,0,0,.18-.3,4.77,4.77,0,0,0-2.54-2.45c-1.43.25-2.63.6-4.41.86l-.05,0h-.06a26.37,26.37,0,0,1-6.52-.11.21.21,0,0,0-.17.35,9.28,9.28,0,0,0,2.21,1.66A31.92,31.92,0,0,0,11.61,26ZM3.53,29c3.78.32,7,3,7.42,2.72.22-.14-.09-1.49,1.17-2.89,2.38,1.2,5.86,2.57,6.39,0a5.06,5.06,0,0,0,0-.88.2.2,0,0,0-.22-.2c-4.37.1-5.7,1-11.92-.76l-1.29-.26a10.13,10.13,0,0,0-1.75,2,.2.2,0,0,0,.15.32Zm19.56,1c-.18.44-.38.85-.58,1.25a.2.2,0,0,0,0,.17c.06.13.19.13.42.21a2.23,2.23,0,0,1,.55.22.21.21,0,0,0,.29-.19,6,6,0,0,0-.07-1.52l-.28-.23A.2.2,0,0,0,23.09,30ZM19.86,13.62a31,31,0,0,0,4.24-.51.2.2,0,0,0,.16-.28c-.67-1.53-2.41-2.61-4.9-3.06a.5.5,0,0,0-.27.16c-.95,1.11-1.21,1.41-1.36,2C17.4,13.24,18.51,13.62,19.86,13.62ZM14.13,20.7a.2.2,0,0,0,.2.25,14.85,14.85,0,0,0,3-.31l2.93-.93c2.42-1.14,4-3,4.27-4.88a.2.2,0,0,0-.24-.23,32.76,32.76,0,0,0-7.36,2.88,7.34,7.34,0,0,1-2.36.95c-.35,0,0,.4-.44,2.27ZM9.47,22.59a.23.23,0,0,0,.17-.13c.13-.32-1-1.06-1.45-3a.2.2,0,0,0-.25-.16,3.3,3.3,0,0,1-1.32.18c-3,0-4.23-1-4.27-.42a5.71,5.71,0,0,0,.91,3.62A28.73,28.73,0,0,0,9.47,22.59ZM4.84,41.91a14.13,14.13,0,0,0,3.57,0c4.75-.47,6.8-.15,9-.27a11.43,11.43,0,0,0,2.69-1.69.21.21,0,0,0-.14-.37c-.21,0-.42.07-1.48.07a48.13,48.13,0,0,1-9.93-1A13.63,13.63,0,0,0,2.2,38.4a.19.19,0,0,0-.15.28A6.84,6.84,0,0,0,4.84,41.91Zm-1-26.08c4-1,4.45-3.79,7.05-4.32,1.91-.38,2.1,1.33,1.5,3.12a.21.21,0,0,0,.13.26A2.69,2.69,0,0,1,14,16.33a.21.21,0,0,0,.38,0,31.11,31.11,0,0,0,1.53-6.54.2.2,0,0,0-.22-.21c-5.37.21-9.89,2.44-12.11,6A.21.21,0,0,0,3.79,15.83ZM1.41,36.18a10.79,10.79,0,0,1,.18-3.29c3.57-1.84,6.1-.68,9.81.85A5.4,5.4,0,0,0,16,36.3a6.47,6.47,0,0,0,4.34-2c2.07-1.08,3-2.08,3.24-2.08a.21.21,0,0,1,.21.22,12.35,12.35,0,0,1-.68,3.22c-9.37,5-13.08.15-18.32.15C2.32,35.78,1.47,36.74,1.41,36.18Z"/><path class="cls-3" d="M6.83,25.74c-9.25-5.25-2.52-16,9.67-16s9.15,11-2.17,11c1.64-7.5-4.74-7.5-6.19-3.85-1,2.52.83,5.2,2.78,7.11l.18-.15c3.72-3.12,8,1.1,7.21,4.88-.5,2.46-4,.94-6.23-.19a4.63,4.63,0,0,0-1.17,4.18c.37,2.6,3.18,3.77,5.07,3.77,2.19,0,5.41-1.69,7.3-6.45l.2.16c.42,6.22-2.45,10.36-8.29,12C-.64,46.61-1.72,30.89,6.83,25.74Zm8.5,17C21.25,41.05,24.47,36.91,24,30l-.37-.3a.52.52,0,0,0-.8.21C21,34.38,18,36,16,36c-1.69,0-4.23-1-4.55-3.33a4.22,4.22,0,0,1,.78-3.47c2.58,1.28,6,2.48,6.61-.35.83-4.09-3.65-8.72-7.86-5.52-7.84-7.89,5-12.62,2.87-2.69a.52.52,0,0,0,.51.63c12,0,15.2-12.06,2.17-12.06s-19,11.41-10.67,16.55C-2,31-1.24,47.33,15.33,42.7Z"/><g class="cls-1"><path class="cls-2" d="M40.33,30.75a.87.87,0,0,1,.53-1.06,16.05,16.05,0,0,1,1.25,4.16A10.64,10.64,0,0,1,40.33,30.75ZM54.54,36.3c.15-4.2.85-10.52-.86-14.37a7.65,7.65,0,0,0-1.79-2.09c-1-1-3-1.63-5.39-1.63a15.16,15.16,0,0,0-7.74,2.11c-1.44-1.5-2.36-2.15-4.47-2.15a7.73,7.73,0,0,0-8,8,2.51,2.51,0,0,0,.76,1.55c.06.07,1.09,1.12,1.15,1.17-.33,4.66-1.64,11,1.9,14.65,1.91,1.94,3.1,2.94,6.21,2.94a9.3,9.3,0,0,0,7.09-3,7.77,7.77,0,0,0,1.46,1.7,3.8,3.8,0,0,0,3,1.29c3.6,0,8.32-3.42,8.32-7.68C56.22,37.85,55.49,37.25,54.54,36.3Z"/></g><path class="cls-3" d="M52.77,36.72l-.09-.08c-.11-.09-.08-.06-.23-.1.06-3.95.95-10.78-.7-14.5-.18-.4-.42-.58-1.47-1.62-1.67-1.67-8.16-1.92-12.58,1.63,0-.83-.58-1.16-1.51-2.09-1.83-1.83-9.08-.51-8.86,5.67a1.18,1.18,0,0,0,.29.51c.08.1,1.05,1.06,1.14,1.16a.5.5,0,0,0,.52.12c-.08,4-1.83,11,1.26,14.4a1.85,1.85,0,0,0,.14.14c1.36,1.37,2.18,2.49,5.11,2.49,2.29,0,5.14-1,6.34-3.11,2.27-4.07-3.24-7.59-3.84-10.82a2.25,2.25,0,0,1,3.07-2.66c1.88,2.86,2.41,9.48,2.65,13,.11,1.55.05,1.4,1.67,3,1.94,1.93,8.47-1.2,8.47-5.55,0-.24-.36-.55-1.38-1.57Z"/><path class="cls-6" d="M51.42,38c-1.76,0,1-11.79-1.28-16.89-1.12-2.51-12.2-2-14.72,4.81A23.77,23.77,0,0,1,36,21.14c.28-1.75-3.17-1.68-5.14-.75a5.33,5.33,0,0,0-3.06,5.22l.15.18c.48-.84,1.17-1.34,1.57-.38,1.12,2.68-2.16,12.17,1.33,16,3,3.26,13.21.4,9.19-6.11-1.18-1.9-3.09-4-3.43-5.86a2.86,2.86,0,0,1,2.7-3.5c4.4,0,4.95,11.81,5.23,15.58.23,3,7.92.1,7.92-4.4L52.32,37c-.1.41-.45,1-.9,1Z"/><path class="cls-7" d="M30.81,20.2a5.5,5.5,0,0,0-2.11,1.73.21.21,0,0,0,.13.33,30.3,30.3,0,0,0,5.71.57c1.54,0,1.39.05,1.48-.45.21-1.1.42-1.65,0-2.17C35.05,19.09,32.15,19.58,30.81,20.2Zm4.69,5.52s0,.05.07.05a28.84,28.84,0,0,0,4.57.23c.52.24,3.41-.77,10.88-.09a.2.2,0,0,0,.22-.21,16.93,16.93,0,0,0-.48-3.36c-.06-.22-.15-.15-1.91,0a44.13,44.13,0,0,0-6.94,1A20,20,0,0,1,37,24l-.73.08a8.6,8.6,0,0,0-.56.91c0-.21,0-.47.07-.8a.2.2,0,0,0-.2-.23c-3.45-.19-7.42-1-7.57-.57a6.27,6.27,0,0,0-.3,1.43.2.2,0,0,0,.2.22c3.31,0,1.89.07,7.54.76A.19.19,0,0,0,35.5,25.72Zm5.61,11.63a9.62,9.62,0,0,0-2.16-4c-4-1.66-6.09-2.07-9.85.07,0,.21-.19,3.08,0,3.24s1.92-.94,4.08-.94C36.45,35.73,41.3,38.37,41.11,37.35Zm-3-14.75c.66-.09,1.32-.18,2-.32.38.12,7-2,7.66-2.22a.21.21,0,0,0,0-.4C42.4,18.79,36.58,22.6,38.11,22.6ZM50.89,36.06a.21.21,0,0,0,.12-.19c0-2.37.25-2.79-.13-2.79s-2.51,2.14-5.56,2.14A8.77,8.77,0,0,1,44,35.1a.21.21,0,0,0-.21.24c.33,2.43.19,2.55.48,2.55A15.89,15.89,0,0,0,50.89,36.06ZM29.71,29.18a8.72,8.72,0,0,1,1.7-.18c3.23,0,5.34,1.71,5.63,1.44s-.66-1.1,0-2.68a.21.21,0,0,0-.14-.28c-.36-.09-6.82-1.95-7.31-1.41-.18.21.16,0-.08,2.88A.2.2,0,0,0,29.71,29.18Zm22.4,9.48a13.72,13.72,0,0,1-5.09,1c-2.3,0-2.8-.28-2.77.13.12,1.68,0,1.88.32,1.88a24.36,24.36,0,0,0,5.94-.47A6.31,6.31,0,0,0,52.3,39a.21.21,0,0,0-.19-.29Zm-13,3A4.61,4.61,0,0,0,41,39.52a.21.21,0,0,0-.17-.28c-6.26-.78-5-1.76-11.24-.61a.2.2,0,0,0-.16.25,5.83,5.83,0,0,0,1.4,2.67c3.91.63,3.66.62,8.37.13ZM51.1,31.44c-.41.31-1.17-1.08-7.11.18l-.67.13a.2.2,0,0,1-.2-.16A14.92,14.92,0,0,0,42,28.31a.2.2,0,0,1,.17-.3c3.34-.12,5.52-.72,9,.2a.21.21,0,0,1,.16.2c0,1-.06,1.94-.1,2.87A.22.22,0,0,1,51.1,31.44Z"/><path class="cls-3" d="M44.58,41.56C44.26,37.17,43.64,26,39.35,26a2.84,2.84,0,0,0-2.7,3.49c.64,3.48,6,6.75,3.89,10.48-1.73,3.1-7.59,3.76-9.65,1.49-3.52-3.89-.2-13.32-1.33-16-.39-.94-1.07-.5-1.57.38,0,0-.14-.19-.15-.18-.23-6.61,8.6-6.93,8.2-4.47a34.72,34.72,0,0,0-.69,4.71l.59-1c3.27-5.74,13.15-6.05,14.2-3.7,1.24,2.79,1,7.52.78,11.33-.1,1.76-.36,4.83.3,5.5l.17,0c.46,0,.82-.48.93-1l.18.18C52.44,41.7,44.81,44.49,44.58,41.56Zm8.06-5a.52.52,0,0,0-.82.28.91.91,0,0,1-.35.55c-.27-.61-.14-3,0-5,.21-3.86.46-8.67-.83-11.57-1.17-2.63-10.53-2.47-14.5,2.73.36-2.24.76-2.88.12-3.63-1.54-1.82-9.12-.8-8.9,5.62,0,.19.27.5.27.5a.53.53,0,0,0,.85-.08,2.45,2.45,0,0,1,.51-.66c.64.43.16,4.41.08,5.19-.64,6.37-.81,12.73,5.62,12.73,2.29,0,5.14-1,6.34-3.11,2.77-5-6.27-9.4-3.3-13a2,2,0,0,1,1.65-.75c3.77,0,4.45,11.38,4.72,15.1s9,.63,9-4.45c0-.26-.38-.54-.38-.54Z"/><g class="cls-1"><path class="cls-2" d="M68.76,28.23a1.34,1.34,0,0,1,1.12-1.07,6.54,6.54,0,0,1-.19,2,4,4,0,0,1-.85-.11,1.74,1.74,0,0,1-.08-.81ZM60.17,42.8c7.42,7.43,24,3.64,23-7.1a2.12,2.12,0,0,0-.72-1.39,8.5,8.5,0,0,0,1.76-4.84c.17-3.72-1.7-6.51-4.48-9h0c-2.06-2-5.08-2.41-7.25-2.41-12.05,0-21.06,10.21-15.77,20.39A17.28,17.28,0,0,0,60.17,42.8Z"/></g><path class="cls-3" d="M66.75,27.31a2.89,2.89,0,0,1,3.94-2,2,2,0,0,1,.19.62,7.45,7.45,0,0,1-.44,3.69c-.48.94-2.31.49-3.32.19A4.2,4.2,0,0,1,66.75,27.31Zm11.58,7.42c-1.7,3.15-4.82,3.05-7.55.69l-.66-.78c2.67.93,5.63,1.31,8.21.09ZM60.75,41.19c6.46,6.47,21.24,3.3,20.36-5.86,0-.28-.14-.29-1.3-1.46l0,0c3.09-2.57,3.37-7.76-.31-11.44,0,0-1.28-1.29-1.32-1.31-1.57-1.52-4-2-6.18-2-10.93,0-19.1,9.06-14.39,18.14a16.15,16.15,0,0,0,3.18,3.95Z"/><path class="cls-8" d="M65.12,26.05c1-3.69,6-3.23,6.27-.16a8.14,8.14,0,0,1-.49,4c-.65,1.25-2.78.93-4.85.16C65.13,28.32,64.86,27,65.12,26.05Zm12.64-4.64c-2.65-2.5-8.3-2.11-12.35-.56C51.7,26.07,55.55,43,68.4,43c5.52,0,11.62-2.84,11.06-8.72a1.79,1.79,0,0,0-.25-.22c-.92,2.65-3.76,5.28-8,2.4a16.22,16.22,0,0,1-3.75-4.09c12.06,5.47,16.36-5.18,10.29-10.92Z"/><path class="cls-9" d="M75.37,20.26C77,19.72,68.76,17.82,62,22.44a.21.21,0,0,0,.12.38,28.42,28.42,0,0,0,6.27-.54c.36.11,6.41-1.82,7-2ZM72.08,39.52c-8.06-.45-7.26-2-13-1.11a.2.2,0,0,0-.13.33A10.42,10.42,0,0,0,63.16,42c2.81,0,2.75-.52,9.9-.36.64,0,1.25,0,2.13,0a9.86,9.86,0,0,0,2.52-1.81.21.21,0,0,0-.18-.35A24,24,0,0,1,72.08,39.52Zm7.08-5.7c-.26.07-.38,1.34-1.71,2.55a.21.21,0,0,0,.14.36,13.59,13.59,0,0,0,2.06-1,5.16,5.16,0,0,0-.05-1.61C79.4,33.9,79.32,33.78,79.16,33.82ZM57.83,36.6a9.35,9.35,0,0,1,3.62-.87c3.87,0,6.85,2.82,12.4,2a.2.2,0,0,0,0-.4c-1.65-.33-3.09-1.3-4.74-3.21-5.54-2.24-7.07-3.28-12.28-.59a.2.2,0,0,0-.11.21,10.9,10.9,0,0,0,.84,2.71A.21.21,0,0,0,57.83,36.6Zm-.56-7.26c3.15-1,6.14.25,9,1.79a5.33,5.33,0,0,0,2.95.92c1.72,0,4.71-1,7.05-1a11,11,0,0,1,2.95.42.2.2,0,0,0,.17-.09,6.48,6.48,0,0,0,1.16-2.64.2.2,0,0,0-.14-.23c-3.71-1.2-5.54-.78-9.09-.56-.35,0-.13.84-.62,1.79-.66,1.27-3.13.6-4.49.16a8.68,8.68,0,0,1-.89-2.27.22.22,0,0,0-.15-.16c-1.44-.34-6.55-1.89-6.87-1.38a11.11,11.11,0,0,0-1.31,3A.21.21,0,0,0,57.27,29.34Zm8.19-3.56a3.2,3.2,0,0,1,1.05-1.49.2.2,0,0,0-.12-.37,40.78,40.78,0,0,1-6-.24,14.21,14.21,0,0,0-1.16,1.17.2.2,0,0,0,.14.33C65.11,25.91,65.35,26.07,65.46,25.78Zm4.09-1.93c-1.64-.62,9.1-1.79,9.27-1.57a8.44,8.44,0,0,1,1.67,3.51.2.2,0,0,1-.23.24,48.15,48.15,0,0,0-8.94-.25.2.2,0,0,1-.22-.17A2.34,2.34,0,0,0,69.55,23.85Z"/><path class="cls-3" d="M65.41,20.85c3.65-1.39,9.53-2.09,12.35.56,4.92,4.64,3,12.44-4.16,12.44a15.76,15.76,0,0,1-6.13-1.5,17.28,17.28,0,0,0,3.75,4.07c3.7,2.51,6.83.94,8-2.41l.18.17c.66,5.8-5.24,8.78-11,8.78C55.52,43,51.73,26.06,65.41,20.85Zm3,22.63c6.21,0,12.28-3.3,11.48-9.55l-.33-.31a.51.51,0,0,0-.82.22c-1.4,4-5.57,4.9-9.74-.34C80.18,37.43,84.37,27,78.11,21c-3-2.81-9-2.14-12.89-.68C51,25.79,55,43.47,68.4,43.48Z"/><path class="cls-3" d="M65.62,26.18c.82-3.1,5.07-2.76,5.26-.25a7.65,7.65,0,0,1-.44,3.69q-.56,1.1-4,.06A5.2,5.2,0,0,1,65.62,26.18Zm.47,3.93c1.54.46,4.07,1.18,4.81-.25a8.13,8.13,0,0,0,.49-4c-.23-3.08-5.29-3.52-6.27.16C64.78,27.33,65.47,28.94,66.09,30.11Z"/><g class="cls-1"><path class="cls-2" d="M107.22,21.19c-1.38-1.39-2.76-3-6-3a9.41,9.41,0,0,0-5.66,2,5.28,5.28,0,0,0-4.39-2,7.59,7.59,0,0,0-7.86,8,2.21,2.21,0,0,0,.7,1.5c.16.19,1.09,1.13,1.37,1.35.24,9.26-.77,12,1.82,14.63,1.59,1.67,2.82,2.86,5.33,2.86,2.93,0,5.58-1.83,6.92-2.93s3.47-3.85.81-8A43.25,43.25,0,0,1,97.29,31a2.42,2.42,0,0,1,.77.31,7.91,7.91,0,0,0,2.24,2.08,2.58,2.58,0,0,0,1.08.22C107.79,33.65,111.09,25.06,107.22,21.19Z"/></g><path class="cls-3" d="M105.61,21.77l-1.09-1.1c-2.1-2.1-6.46-2.2-9.8,1.31a1.4,1.4,0,0,0-.41-.83A15.06,15.06,0,0,0,93.08,20c-1.3-1.16-5-1-7.19,1.22a5.93,5.93,0,0,0-1.59,4.46.54.54,0,0,0,.12.31,1.54,1.54,0,0,0,.17.19l.06.07c1.14,1.14,1.21,1.37,1.68,1.19.35,10.07-.72,12.49,1.44,14.71,0,0,0,0,0,0l1.09,1.09c2.45,2.45,6.29.91,9-1.33s1.08-5,.5-5.94c-1.25-1.94-3.59-4.83-3.15-6.14s2.18-.95,3.36-.15a3.6,3.6,0,0,1,.28.4,9.79,9.79,0,0,0,1.42,1.38l.24.1a1.66,1.66,0,0,0,.32,0c5,0,7.64-6.92,4.74-9.81Z"/><path class="cls-10" d="M105.16,23.57c0-4.92-8.71-6.1-12.31,2.22a27,27,0,0,1,.23-4.65c.33-2.37-8.49-2.25-8.26,4.47l.15.19c.85-2,1.74-1.37,1.85.9s.15,8,.06,11c-.16,5.58,4.59,6.81,9.55,2.68,2-1.64,1.6-3.42.41-5.27-1.36-2.1-3.76-5-3.21-6.58.79-2.33,4.54-1,5.72,1.32l.24.09c3.49.09,5.57-3.32,5.57-6.36Z"/><path class="cls-11" d="M99.17,29.93c.21.42,2.81.39,4.59-1.78a.21.21,0,0,0-.14-.34,21.28,21.28,0,0,0-4.37,0c-1.43.12-1.56,0-1.62.26a.21.21,0,0,0,.08.22A4.47,4.47,0,0,1,99.17,29.93ZM86.89,32.12c-.25.05-.14.05-.18,3.48a.21.21,0,0,0,.24.21c3.46-.44,6.5,1.89,10.85,2.09a.19.19,0,0,0,.21-.21A5.73,5.73,0,0,0,96.7,34.6C93,33.35,90.39,31.46,86.89,32.12Zm8.59-10c.33,0,6.44-1.94,6.76-2a.21.21,0,0,0,0-.4,7.39,7.39,0,0,0-6.9,2.08A.21.21,0,0,0,95.48,22.15ZM94.06,28c-.13-.27-.3.13-4.46-1-.26-.07-2.52-.7-2.8-.7a.2.2,0,0,0-.2.22c.16,2.17-.06,2.47.27,2.51,3.54.37,6.06,2.57,7.67,2.93a.2.2,0,0,0,.22-.31c-1.89-3.14-.51-3.22-.7-3.61Zm3.25,11.74a.21.21,0,0,0-.15-.34c-5.62-.46-6.8-1.61-10.28-1.21a.21.21,0,0,0-.19.21A5,5,0,0,0,88.14,42c2.36.25,3.88-.17,6.9-.32a8.75,8.75,0,0,0,2.27-1.87ZM84.83,25.07c.22,0,.7.13.81,0,.39-.45.48-.17.82.2,2.58.35,4.39.63,6.38.71h0c.63,0,1.28,0,1.91,0,.16.07.33,0,.95,0,6.89-.71,9.18.21,9.33-.26a5.54,5.54,0,0,0,.12-3.35.2.2,0,0,0-.19-.14c-10.07,1.06-4.86.52-11.36,1.72-.21.33-.39.64-.55.95v-.53c0-.14,0-.29,0-.38-.25-.22-.25.36-7.24-.48-.65-.08-.83-.15-.9.06a6.63,6.63,0,0,0-.22,1.3.2.2,0,0,0,.18.22Zm8.45-3.9c-.14,1,0,1.35-.29,1.38a27.89,27.89,0,0,1-7.41,0c-.86-.12,1.6-3.05,5.09-3.05C91.91,19.54,93.45,20,93.28,21.17Z"/><path class="cls-3" d="M99.71,29.93l-.43-.32c-1.49-2.22-4.9-3.32-5.65-1.09-.44,1.3,1,3.31,2.31,5.26,1.56,2.25,3.1,4.42.49,6.59-4.9,4.08-9.71,3-9.55-2.68.09-3,.06-8.71,0-11s-1-2.92-1.86-.91l-.1-.11c-.36-6.84,8.53-6.89,8.21-4.54a29.25,29.25,0,0,0-.25,4.6l.49-.93c3.78-7.13,11.84-6,11.84-1.24C105.16,26.78,103,29.93,99.71,29.93Zm6-6.36c0-5.17-8.11-6.47-12.31.13.1-2.53.51-2.88-.12-3.61-1.73-2-9.35-.86-8.88,5.79.19.23.31.43.6.43.62,0,.48-.71,1-1.16a3.27,3.27,0,0,1,.35,1.58c.5,10-.85,13,1.46,15.36s6.31.91,9-1.33,1.08-5,.51-5.94c-1-1.48-3.61-4.79-3.15-6.14.64-1.87,3.78-.51,4.92,1.52l.31.19a1,1,0,0,0,.38.06C103.28,30.45,105.68,27,105.68,23.57Z"/><g class="cls-1"><path class="cls-2" d="M118.14,30a4.43,4.43,0,0,1,1.43-2.37l.21.36c-.45,2-.63,4.72-1,5.77A5.5,5.5,0,0,1,118.14,30ZM116.59,52.6a10.53,10.53,0,0,0,.86.91,5.14,5.14,0,0,0,4.36,1.93c13.35,0,11.71-26.56,13.46-29.92,1.36-1.22.43-3.14-.86-4.43a8.69,8.69,0,0,0-2.07-1.77,9.6,9.6,0,0,0-9.29.48c-4.28-4-12-.66-14.27,5.64-1.59,4.5-2.11,11.1,1.68,14.88a12,12,0,0,0,6.11,3.87C115.79,47.28,115.06,50.65,116.59,52.6Z"/></g><path class="cls-3" d="M117.33,34.64a7.07,7.07,0,0,1-1.22-5.44c.35-1.63,1.75-3.62,2.89-3.62a2,2,0,0,1,1.06.3,15.78,15.78,0,0,1,.86,1.4c-1,3.66-.53,7.76-2.51,7.76A2,2,0,0,1,117.33,34.64Zm6.47,4.1a8.63,8.63,0,0,1,.11,4.58,3.76,3.76,0,0,1-2.72,2.58C121.36,44,123,40.55,123.8,38.74Zm-6.46,12.45,0,0c.15.19.25.27,1.28,1.31a3.6,3.6,0,0,0,2.63.84c12.17,0,10-27.64,12.4-29.5.33-.26.16-.58.05-.85a3.46,3.46,0,0,0-.94-1.36,7.82,7.82,0,0,0-1.75-1.53c-2.73-1.58-7.54-.53-8.5,1.34a6.5,6.5,0,0,0-2.74-2.06c-3.38-1.21-8.41,1.28-10.08,6-1.5,4.25-1.88,10.09,1.31,13.27l1.3,1.29A9.57,9.57,0,0,0,118,42.42c-.71,2.89-2,7-.63,8.77Z"/><path class="cls-12" d="M120.41,33.4c-1.4,5.3-7.07-.21-5.94-5.45.37-1.71,1.87-4,3.39-4,1.88,0,2.77,1.82,3.61,3.27-.74,2.7-.67,4.76-1.06,6.2Zm4,10.08a4.2,4.2,0,0,1-3.65,3c-3.59,0,1.82-9.19,2.42-11.53C124.54,38.63,125.06,41.47,124.4,43.48Zm7.72-21.41c-1.24-3.31-8.08-2.35-9.09-.41-.34.67-.44.94-.7,1.5-1.23-6-9.86-3.95-12.12,2.45-1.29,3.66-2.07,9.73,1.34,12.88a8.49,8.49,0,0,0,7.38,2.11c-1.71,7.25-3.19,11.12,1.22,11.12,11.67,0,9.36-27.44,12.08-29.37Z"/><path class="cls-13" d="M127.75,31.06c2.3,0,2.84.64,2.9.16.32-2.88.41-2.94.16-3a17,17,0,0,0-6.5-.35c-3.21.26-3.21.06-3.27.33-.28,1.32-.41,2.36-.56,3.62-.1.77,4.68-.75,7.27-.75Zm1.65,8.62a.21.21,0,0,0-.21-.25,12.37,12.37,0,0,1-2.51.22c-2,0-2.41-.23-2.35.16.23,1.46,0,1.85.32,1.86a29,29,0,0,0,4.21-.21.2.2,0,0,0,.17-.16C129.16,40.77,129.28,40.23,129.4,39.68ZM110,36.34a9.76,9.76,0,0,1,3.09-.59,14.06,14.06,0,0,1,4.35.93,21.37,21.37,0,0,0,4.68,1.15.2.2,0,0,0,.21-.12c.42-.92.7-1.58.89-2.12.78,2.19.64,2.31.9,2.31A14.22,14.22,0,0,0,130,36.22c.13-.88.25-1.76.36-2.63a.21.21,0,0,0-.21-.23c-.28,0-2.36,1.88-5.17,1.88a10.19,10.19,0,0,1-1.72-.2l0,0s0-.05-.08-.06c-2.4-.55-3-1.28-3.21-.88-1.17,2.58-3.66.67-4.93-2a8.52,8.52,0,0,0-5.88,1,.2.2,0,0,0-.11.21,10,10,0,0,0,.75,2.87A.18.18,0,0,0,110,36.34Zm11.31,3c-5.47-.57-5.77-1.58-9.75-1.07a.21.21,0,0,0-.1.38,8.88,8.88,0,0,0,7.24,2.24l-.14.58a.2.2,0,0,0,.2.25c.22,0,.44,0,1.75-.07.22,0,.1,0,1-2a.21.21,0,0,0-.17-.29ZM115.7,25.71a4.06,4.06,0,0,1,1.44-1.36.2.2,0,0,0,.1-.23c0-.22-.31-.16-.59-.16a45.29,45.29,0,0,1-5.48-.44.21.21,0,0,0-.2.1,8.62,8.62,0,0,0-.66,1.24.21.21,0,0,0,.16.29c1.79.21,3.51.48,5,.65A.21.21,0,0,0,115.7,25.71ZM110,26a.22.22,0,0,0-.22.14,19.67,19.67,0,0,0-.66,2.78c-.13.76,1.3-.68,5.11.61a.2.2,0,0,0,.27-.19,11.57,11.57,0,0,1,.34-2.26.24.24,0,0,0-.13-.11A24.42,24.42,0,0,0,110,26Zm17.26-5.91a.2.2,0,0,0-.06-.4,7.42,7.42,0,0,0-3.79,1.19.21.21,0,0,0,.13.37C123.67,21.27,127.22,20.14,127.3,20.11Zm-8.15,31.4a.21.21,0,0,0,.11.35,6.57,6.57,0,0,0,3-.26.21.21,0,0,0,0-.38C121,50.55,120.17,50.54,119.15,51.51Zm2.64-29.7a.21.21,0,0,0,.12-.3c-2-3.45-7.18-2.31-10,.88a.21.21,0,0,0,.14.34,27.63,27.63,0,0,0,7.79-.45A10.23,10.23,0,0,0,121.79,21.81Zm-1.35,4.08c0,.07.24.07.33.07,7.56-.82,10.46.39,10.55-.19s.44-2.84,1-3.26c.08-.05.07-.26,0-.35-.12-.28-.35-.11-7.31.57-2.54.25-4.19.89-6.43,1.13a.2.2,0,0,0,0,.4A3.64,3.64,0,0,1,120.44,25.89Zm3.23,18.57a.2.2,0,0,0,.14.31c.63.1,1.8.25,1.9.63s-.92,1.14-1.09,1.35c-.61.72-.48,1.7.39,2.77a.2.2,0,0,0,.31,0,16.33,16.33,0,0,0,3.17-6.22.21.21,0,0,0-.19-.27c-3.12-.14-3.92-.57-4-.17A2.91,2.91,0,0,1,123.67,44.46Zm-3.91.76c-1.8,1.67-1.54,5.56-2.14,5.63a.21.21,0,0,1-.2-.1c-.76-1.33-.26-3.7.58-7.17a6.26,6.26,0,0,1,1.88-.64C120.39,42.94,119.68,43.86,119.76,45.22Z"/><path class="cls-3" d="M111.55,38.49c-3.28-3-2.77-8.83-1.34-12.88,2.1-5.95,10.15-8.38,11.94-3.13l.21.62c.27-.6.4-.91.67-1.44,1-2,7.88-2.83,9.09.42l.11.26c-2.73,1.95-.42,29.38-12.08,29.38a2.87,2.87,0,0,1-2.4-.85c-1.19-1.51-.06-5.11,1.18-10.26A8.6,8.6,0,0,1,111.55,38.49Zm8.6,13.75c12.19,0,10-27.78,12.38-29.47.37-.26.17-.65.08-.88-1.39-3.72-8.8-2.83-10-.47-.06.13-.12.23-.17.33-2.41-5.14-10.55-2.35-12.68,3.69-1.48,4.2-2,10.23,1.48,13.42a9.34,9.34,0,0,0,7,2.4C116.9,46.82,114.91,52.24,120.15,52.24Z"/><path class="cls-3" d="M118.41,35c-1.67,0-4.19-3.48-3.43-7,.35-1.64,1.71-3.61,2.88-3.61,1.44,0,2.19,1.31,3,2.69l.08.09C119.92,31,120.41,35,118.41,35Zm2-1.64c.32-1.23.33-3.56,1.09-6.37l-.25-.19c-.78-1.37-1.67-2.91-3.4-2.91-1.44,0-3,2.12-3.39,4C113.34,33.22,119,38.69,120.42,33.4Z"/><path class="cls-3" d="M123.16,36.48c1,3.09,1.27,5.28.75,6.84-.8,2.42-3.31,3.08-3.72,2.44C119.33,44.43,122.3,38.51,123.16,36.48ZM119.76,46c.68,1.06,3.7.27,4.64-2.56.84-2.53-.33-6-1.21-8.48C121.73,38.79,118.67,44.35,119.76,46Z"/><g class="cls-1"><path class="cls-2" d="M150.06,10.34c-4.19-4.2-11.7-.9-12.33,4.44A5.64,5.64,0,0,0,139,19.11l0,0a8.64,8.64,0,0,0-3.92,6.81,2,2,0,0,0,.58,1.61c.18.2.17.19,1.16,1.17a3.1,3.1,0,0,0,1.41.76,29.94,29.94,0,0,1-2.1,4.78c-1.2,2.71-1.07,6.89,1.24,9.21,1.82,1.82,3.19,3.06,6,3.06a8.39,8.39,0,0,0,8.3-7.53c.06-1.13-.67-1.66-1.72-2.69.94-5.27,2.54-11-1.49-15,3.26-1.33,5.22-4.19,4.22-7.43A8.08,8.08,0,0,0,150.06,10.34Z"/></g><path class="cls-3" d="M148.45,10.92c-3.32-3.33-9.23-.47-9.7,3.53a4.1,4.1,0,0,0,.9,3.15,14.53,14.53,0,0,0,1.78,1.68c-2.81.17-5,2.69-5.32,6.28a.51.51,0,0,0,.18.42,11.86,11.86,0,0,0,1.11,1.13,3.07,3.07,0,0,0,.4.26.51.51,0,0,0,.69-.15,1.76,1.76,0,0,1,.82-.73c.7,2.79-1.52,6.17-2.28,7.88-1,2.3-.8,5.76.92,7.49,1.05,1,1.1,1.11,1.24,1.23,3.75,3.35,10.12.11,10.39-4.69,0-.33-.15-.39-1.24-1.49a.6.6,0,0,0-.13-.09s0,0-.07-.06-.35-.16-.42-.13c.36-3.32,3-10.86-.58-14.43L146,21.11A6,6,0,0,0,144.48,20c3.62-.12,7.25-2.69,6.18-6.15-.39-1.28-1.16-1.88-2.21-2.92Z"/><path class="cls-14" d="M141.22,11.31c-2.35,1.77-2.43,4.44-1.21,5.92s4.79,1.56,7.33-.18C152.1,13.79,146.83,7.07,141.22,11.31Z"/><path class="cls-15" d="M145,20.87c-3.93-2.7-7.87-.19-8.32,4.74l.3.18c1.49-2.25,3.75-.54,2.83,3.52-.53,2.33-1.24,3-2.25,5.27-.94,2.09-.82,5.45.9,7,3.41,3.06,9.28,0,9.52-4.33l-.21-.09a1.46,1.46,0,0,1-.44.56c-.88.73-1.74,0-1-3.74s2.44-10.51-1.35-13.1Z"/><path class="cls-16" d="M145.51,31.61c1.44-.3,1.52-.24,1.56-.44a17.84,17.84,0,0,0,.36-3.34c-.26-.27-3.54.59-7.45,0-.44-.08,0,.69-.84,2.9-.08.22.16.29.4.42C141.7,32.28,142.52,32.25,145.51,31.61Zm1.12-8.86c-3.64.4-4.89,1.45-9.72,1.16a.19.19,0,0,0-.21.15,8,8,0,0,0-.27,1.43c0,.24.22.23.43.26l.42-.05c.77-.95,1.67-.9,2.16.16a.2.2,0,0,0,.18.12c.78,0,1.54,0,2,0,.37.17,1.39-.27,5.64-.31a.21.21,0,0,0,.2-.23,8.14,8.14,0,0,0-.64-2.58A.2.2,0,0,0,146.63,22.75Zm-9.32-.27a.2.2,0,0,0,.18.3,28.55,28.55,0,0,0,4.12-.5,27.84,27.84,0,0,0,3.69-1,.21.21,0,0,0,.07-.36c-2.82-2.27-6.36-1.72-8.06,1.54Zm-.52,16c.28,2.21,1.5,3.39,1.78,3.39a59.77,59.77,0,0,1,7.11-.3,6.51,6.51,0,0,0,1.55-1.68c.46-.69-2.54,0-8.55-1.3-.13,0-1.56-.34-1.69-.34A.2.2,0,0,0,136.79,38.52Zm10.49-1.14a.21.21,0,0,0,.15.35l.52-.11c.09,0,.18-.28.19-.37S148,37,147.8,37a.21.21,0,0,0-.27.11,1,1,0,0,1-.19.26ZM138.2,32.7a10.77,10.77,0,0,0-1.29,3.12.2.2,0,0,0,.15.24c2.69.67,5.42,2.09,9.21,1.8a.18.18,0,0,0,.17-.11c.14-.27-.39-.2-.16-2.33a.22.22,0,0,0-.18-.23c-2.46-.24-5.15-1.72-7.66-2.59A.2.2,0,0,0,138.2,32.7Zm10.93-19.1a.21.21,0,0,0,.23-.24,4.11,4.11,0,0,0-1-2.08C148,10.85,146.71,13.26,149.13,13.6Zm-7.67,2.94c1.09-1.69,2-4.81.14-5h-.25c-.32,0-.36-.38-.16-.4a5.76,5.76,0,0,1,4.53-1.28.22.22,0,0,1,.17.23,33.79,33.79,0,0,1-1.57,6.45c-.31.89-.45,1.29-.29,1.72a.21.21,0,0,1-.17.28,5.71,5.71,0,0,1-3.22-.52.21.21,0,0,1,0-.32A8.7,8.7,0,0,0,141.46,16.54Z"/><path class="cls-3" d="M149,12.86c1.72,5.54-10.55,8.2-9.77,1.65.32-2.67,3.31-4.56,5.63-4.56A4.29,4.29,0,0,1,149,12.86Zm-4.15-3.43c-2.52,0-5.78,2-6.13,5-.88,7.38,12.75,4.63,10.78-1.75A4.84,4.84,0,0,0,144.88,9.43Z"/><path class="cls-3" d="M136.93,25.79l-.3-.18c.44-4.8,4.31-7.49,8.32-4.74,5.41,3.7-.28,14.92,1.37,16.9.3.38,1.07.11,1.4-.63l.22.09c-.25,4.4-6.13,7.38-9.53,4.34-1.72-1.53-1.86-4.85-.91-7s1.73-2.94,2.25-5.27C140.67,25.29,138.43,23.51,136.93,25.79Zm1,6.66c-.28.53-.6,1.13-.95,1.92-1,2.3-.85,5.9,1,7.59,3.75,3.35,10.12.1,10.39-4.7,0-.55-.93-.9-1.2-.33a1,1,0,0,1-.3.39c-.13.11-.21.16-.23.13-1.35-1.79,4.2-13.12-1.47-17-4.33-3-8.65-.1-9.14,5.12,0,.4.3.52.56.68a.52.52,0,0,0,.69-.16C138.86,23.82,140.87,27,138,32.45Z"/><g class="cls-1"><path class="cls-2" d="M163.27,29c.49,1.64,2.1,4.95,2,6.16A16.61,16.61,0,0,1,163.27,29Zm14.46-8.29a6.86,6.86,0,0,0-5.55-2.54,11.12,11.12,0,0,0-6.63,2.28c-4.77-4.75-13-1.57-14.05,7.3-.67,5.34-1,10.88,2.77,14.65l1.09,1.09a10.15,10.15,0,0,0,13.17,1.15c1.13,1.18,2.06,1.94,3.8,1.94,3.23,0,7-3.33,7-7.62,0-1.06-1-1.86-1.86-2.7-.09-3.91.58-9.45,1.71-11.41C180,23.43,178.86,21.86,177.73,20.7Z"/></g><path class="cls-3" d="M166.25,34.91c-.18,1.21-1.16,2.05-2.25,1.48-2.25-3.28-3.36-8.44-2.54-10.08.16-.32.33-.36.48-.36a2.58,2.58,0,0,1,1.46.79c.23.26.47.54.73.87C164.49,29.31,166.53,33,166.25,34.91ZM177.38,23.1a4.63,4.63,0,0,0-.95-1.5c-1.22-1.22-2.12-2.41-4.77-2.41a10.4,10.4,0,0,0-3.28.62,5,5,0,0,0-3.22,2.49,21.05,21.05,0,0,0-1.5-1.55c-3.52-3.45-10.21-.88-11.14,6.66-.63,5-1,10.06,2.33,13.37l1.09,1.09c3.32,3.32,9,3.64,12.24,0a2.72,2.72,0,0,0,.33.48s0,.09.07.13l0,0a.54.54,0,0,0,.12.14c1.09,1.09,1.63,1.88,3.08,1.88,2.47,0,5.47-2.72,5.48-6.09a1.12,1.12,0,0,0-.34-.53c-.36-.37-1.12-1.13-1.13-1.13a.43.43,0,0,0-.35-.16c-.2-3.69.38-10.44,1.88-13A.51.51,0,0,0,177.38,23.1Z"/><path class="cls-17" d="M166.76,35c-.3,2-2.46,3.1-4.09.89-4.08-5.53-4.87-17.11,2-8.49C164.88,29,167.08,32.87,166.76,35Zm9-12.83A3.34,3.34,0,0,0,174,20.21a7.13,7.13,0,0,0-5.46.09c-2.27.76-2.9,1.62-3.7,4.09-1.26-7.26-10.72-5.81-11.82,3.09-.4,3.23-.87,7.91.7,10.94,3,5.72,12,6.33,14.6-.91,0,.28,0,.44-.06.91-.92,7.57,7.35,4.29,7.37-1.14l-.2-.18c-.36,1-1,1.57-1.33.52C173.39,35.31,173.78,25.61,175.77,22.16Z"/><path class="cls-18" d="M170.66,19.61A11,11,0,0,0,167,20.75a.2.2,0,0,0,.1.38c.08,0,3.54-1.1,3.62-1.12A.21.21,0,0,0,170.66,19.61ZM168,39.82c0,.38.17,1.84.56,1.84a21.14,21.14,0,0,0,6-.77,6,6,0,0,0,1.09-2.19.21.21,0,0,0-.2-.26,14.06,14.06,0,0,1-5.63,1.21C168.26,39.65,168,39.49,168,39.82ZM154,23.63a9.31,9.31,0,0,0-.55,1.24c-.13.34.35.29,2.47.59,3.81.52,3.86.51,3.91.27.36-2,1.8-1.24,3.25.23.11.11.26.06.78,0,7.69-.83,10.77.41,10.89-.13.68-3.28,1.32-3.42,1.15-3.71s-.8-.07-7.75.61a23,23,0,0,0-3,.5c-.19,0-.22.25-.28.43l-.06-.16a.21.21,0,0,0-.24-.15c-3.3.7-4.55.88-10.38.17A.2.2,0,0,0,154,23.63ZM157.1,42c.28,0,.54,0,.78,0a17.12,17.12,0,0,0,2.07-.14c3.11-.33,3.93-.19,5.65-.29a7.79,7.79,0,0,0,1.72-1.72.22.22,0,0,0,0-.21c-.19-.39-2,.15-7.63-1.11a13,13,0,0,0-5.91-.18.2.2,0,0,0-.15.3A8.22,8.22,0,0,0,157.1,42Zm5.8-19.73a4.77,4.77,0,0,0,1-.2.22.22,0,0,0,.12-.32c-2.2-3.29-6.72-2.71-9.27.63a.21.21,0,0,0,.15.33A27.84,27.84,0,0,0,162.9,22.28Zm-9.86,4a16.92,16.92,0,0,0-.38,2.61.2.2,0,0,0,.2.23,9,9,0,0,1,1.32-.11c3.15,0,5.7,1.74,6,1.74.53,0-.13-.68-.35-3.09,0-.21,0-.12-2-.65a26,26,0,0,0-4.58-1C153.17,26,153.07,26.17,153,26.27Zm-.6,6.9a15.73,15.73,0,0,0,.33,3c.1.49,1-.42,3.3-.42,3.91,0,7,2.73,12.26,2h0a17.71,17.71,0,0,0,5.57-1.84c.23-.11,0-.15.06-2.74,0-1-2.22,2-5.9,2-1.22,0-1.53-.3-1.61,0a2,2,0,0,1-1.81,1.65c-1.46,0-2.52-2.07-3.37-3.7-3.32-1.34-5.44-1.8-8.74-.21A.2.2,0,0,0,152.44,33.17Zm21.62-1.85c0,.53-.7-.25-3.24-.25a23.62,23.62,0,0,0-4.71.68c-.22,0-.15-.06-.85-1.85-.23-.59-.45-1.15-.61-1.62a.2.2,0,0,1,.19-.27c3.48-.11,5.65-.76,9.33.27C174.47,28.37,174.23,28.53,174.06,31.32Z"/><path class="cls-3" d="M164.68,36.59c-2.57,0-5.52-9.11-4.35-11.42.63-1.26,2.9,1.28,3.79,2.37.32,1.72,2.42,5.45,2.13,7.37A1.79,1.79,0,0,1,164.68,36.59Zm-.08-9.27c-8.68-10.51-4.47,9.78.08,9.78A2.28,2.28,0,0,0,166.76,35C167.08,32.85,164.89,29,164.6,27.32Z"/><path class="cls-3" d="M174.11,37.62c.33,1.05,1,.53,1.32-.52a2.4,2.4,0,0,1,.21.23c-.07,5.29-7.85,8.44-7.43,1.66l.08-1.16-.56,1c-3.15,5.77-11.2,4.93-14-.43-1.46-2.81-1.2-6.92-.7-11,1.06-8.5,9.77-10.22,11.62-3.94l.22.74c.82-2.2,1.21-3.14,3.68-4s3.91-.8,5.46-.09a3.4,3.4,0,0,1,1.76,1.95C173.81,25.56,173.37,35.25,174.11,37.62ZM176.24,22a3.79,3.79,0,0,0-2-2.22c-1.67-.76-3.37-.75-5.84.07a4.91,4.91,0,0,0-3.46,2.91c-2.4-6-11.31-4.12-12.41,4.69-.51,4.1-.77,8.31.76,11.24,2.82,5.41,10.76,6.55,14.42,1.25.33,6.3,8.44,3.14,8.46-2.62,0-.22-.33-.53-.37-.56a.52.52,0,0,0-.83.21,2.7,2.7,0,0,1-.31.64c-.83-2.1-.31-11.89,1.57-15.15A.47.47,0,0,0,176.24,22Z"/></g></g></svg>